<svg width="32" height="32" viewBox="0 0 32 32" fill="none" xmlns="http://www.w3.org/2000/svg">
<g id="fluent:top-speed-20-filled">
<path id="Vector" d="M14.8002 5.66721C12.8768 5.8853 11.0526 6.63617 9.533 7.83521L10.8482 9.15201C11.0602 9.37949 11.1756 9.68037 11.1701 9.99125C11.1646 10.3021 11.0387 10.5987 10.8188 10.8186C10.5989 11.0385 10.3023 11.1644 9.99143 11.1699C9.68055 11.1754 9.37967 11.06 9.15219 10.848L7.8306 9.52801C6.70736 10.9369 5.97654 12.6177 5.7122 14.4H8.4002C8.71845 14.4 9.02368 14.5264 9.24872 14.7515C9.47377 14.9765 9.60019 15.2818 9.60019 15.6C9.60019 15.9183 9.47377 16.2235 9.24872 16.4485C9.02368 16.6736 8.71845 16.8 8.4002 16.8H5.6402C5.88931 19.3678 7.06291 21.7577 8.9426 23.5248C9.1693 23.7438 9.30075 24.0432 9.30854 24.3583C9.31632 24.6734 9.19982 24.9789 8.9842 25.2088C8.76858 25.4387 8.47116 25.5746 8.15621 25.587C7.84125 25.5994 7.53406 25.4874 7.301 25.2752C4.837 22.9664 3.2002 19.5616 3.2002 15.9088C3.2002 8.88161 8.93939 3.20001 16.0002 3.20001C23.061 3.20001 28.8002 8.88001 28.8002 15.9088C28.797 17.6625 28.4371 19.3973 27.7423 21.0075C27.0475 22.6177 26.0323 24.0697 24.7586 25.2752C24.5255 25.4874 24.2183 25.5994 23.9034 25.587C23.5884 25.5746 23.291 25.4387 23.0754 25.2088C22.8598 24.9789 22.7433 24.6734 22.7511 24.3583C22.7588 24.0432 22.8903 23.7438 23.117 23.5248C24.9836 21.7547 26.1378 19.3627 26.3618 16.8H23.6002C23.2819 16.8 22.9767 16.6736 22.7517 16.4485C22.5266 16.2235 22.4002 15.9183 22.4002 15.6C22.4002 15.2818 22.5266 14.9765 22.7517 14.7515C22.9767 14.5264 23.2819 14.4 23.6002 14.4H26.2882C25.6098 9.81441 21.8834 6.20001 17.2002 5.66721V7.60001C17.2002 7.91827 17.0738 8.2235 16.8487 8.44854C16.6237 8.67358 16.3185 8.80001 16.0002 8.80001C15.6819 8.80001 15.3767 8.67358 15.1517 8.44854C14.9266 8.2235 14.8002 7.91827 14.8002 7.60001V5.66721ZM21.5186 9.29121C21.664 9.17574 21.845 9.11443 22.0307 9.1178C22.2163 9.12117 22.395 9.18901 22.5361 9.30969C22.6772 9.43037 22.7719 9.59637 22.8041 9.77924C22.8362 9.96211 22.8037 10.1505 22.7122 10.312L22.5362 10.6256C21.8928 11.7618 21.2453 12.8957 20.5938 14.0272C20.0729 14.9327 19.5449 15.8341 19.0098 16.7312C18.8093 17.0687 18.6044 17.4037 18.3954 17.736C18.2354 17.9872 18.0786 18.2256 17.9634 18.36C17.5501 18.8442 16.9614 19.1444 16.3267 19.1945C15.6921 19.2446 15.0636 19.0405 14.5794 18.6272C14.0952 18.2139 13.7951 17.6252 13.7449 16.9906C13.6948 16.3559 13.8989 15.7274 14.3122 15.2432C14.4274 15.1088 14.637 14.9152 14.861 14.7184C15.101 14.5056 15.4098 14.2448 15.757 13.952C16.4546 13.3696 17.3282 12.656 18.1794 11.968C19.1947 11.1467 20.2133 10.3296 21.2354 9.51681L21.5186 9.29121Z" fill="white"/>
</g>
</svg>
