<svg width="1431" height="937" viewBox="0 0 1431 937" fill="none" xmlns="http://www.w3.org/2000/svg">
<path d="M874.299 912.518L877.617 918.139L874.299 923.76H867.663L864.337 918.139L867.663 912.518H874.299ZM875.908 819.774L880.835 828.118L875.908 836.463H866.046L861.127 828.118L866.046 819.774H875.908ZM914.449 889.535L918.054 895.64L914.449 901.738H907.241L903.644 895.64L907.241 889.535H914.449ZM840.174 610.197L849.239 625.554L840.174 640.905H822.044L812.979 625.554L822.044 610.197H840.174ZM876.751 773.322L882.521 783.104L876.751 792.879H865.211L859.433 783.104L865.211 773.322H876.751ZM841.14 563.556L851.165 580.548L841.14 597.524H821.077L811.053 580.548L821.077 563.556H841.14ZM860.346 576.039L849.71 558.033L860.346 540.035H881.608L892.235 558.033L881.608 576.039H860.346ZM915.316 843.06L919.779 850.618L915.316 858.183H906.382L901.919 850.618L906.382 843.06H915.316ZM877.594 726.886L884.215 738.09L877.594 749.294H864.368L857.747 738.09L864.368 726.886H877.594ZM839.176 656.905L847.243 670.569L839.176 684.232H823.041L814.974 670.569L823.041 656.905H839.176ZM795.444 866.006L799.652 873.133L795.444 880.252H787.029L782.821 873.133L787.029 866.006H795.444ZM880.626 586.706L890.279 603.047L880.626 619.396H861.328L851.675 603.047L861.328 586.706H880.626ZM879.527 633.589L888.074 648.061L879.527 662.542H862.434L853.887 648.061L862.434 633.589H879.527ZM875.126 866.112L879.272 873.133L875.126 880.146H866.835L862.689 873.133L866.835 866.112H875.126ZM799.706 633.717L808.183 648.061L799.706 662.406H782.767L774.298 648.061L782.767 633.717H799.706ZM798.708 680.434L806.172 693.076L798.708 705.718H783.773L776.309 693.076L783.773 680.434H798.708ZM838.209 703.561L845.302 715.583L838.209 727.604H824.008L816.916 715.583L824.008 703.561H838.209ZM1039.57 632.636L1048.68 648.061L1039.57 663.487H1021.35L1012.24 648.061L1021.35 632.636H1039.57ZM797.014 773.322L802.784 783.104L797.014 792.879H785.466L779.696 783.104L785.466 773.322H797.014ZM796.225 819.668L801.214 828.118L796.225 836.561H786.248L781.259 828.118L786.248 819.668H796.225ZM797.826 726.931L804.416 738.09L797.826 749.249H784.654L778.064 738.09L784.654 726.931H797.826ZM837.296 750.104L843.5 760.597L837.296 771.083H824.913L818.725 760.597L824.913 750.104H837.296ZM800.773 586.91L810.302 603.047L800.773 619.184H781.707L772.178 603.047L781.707 586.91H800.773ZM836.461 796.548L841.806 805.604L836.461 814.667H825.764L820.412 805.604L825.764 796.548H836.461ZM780.741 575.804L770.252 558.033L780.741 540.269H801.732L812.228 558.033L801.732 575.804H780.741ZM835.672 842.886L840.243 850.618L835.672 858.357H826.537L821.974 850.618L826.537 842.886H835.672ZM834.86 889.285L838.611 895.64L834.86 901.987H827.357L823.614 895.64L827.357 889.285H834.86ZM878.537 680.267L886.102 693.076L878.537 705.884H863.416L855.859 693.076L863.416 680.267H878.537ZM980.093 598.326L969.59 580.548L980.093 562.761H1001.09L1011.59 580.548L1001.09 598.326H980.093ZM1000.06 609.516L1009.53 625.554L1000.06 641.585H981.114L971.655 625.554L981.114 609.516H1000.06ZM993.791 890.215L996.986 895.64L993.791 901.057H987.387L984.193 895.64L987.387 890.215H993.791ZM995.88 796.646L1001.16 805.604L995.88 814.569H985.299L980.008 805.604L985.299 796.646H995.88ZM916.197 796.548L921.55 805.604L916.197 814.667H905.5L900.148 805.604L905.5 796.548H916.197ZM996.847 749.998L1003.11 760.597L996.847 771.196H984.332L978.067 760.597L984.332 749.998H996.847ZM998.958 656.399L1007.33 670.569L998.958 684.739H982.228L973.851 670.569L982.228 656.399H998.958ZM1037.32 726.469L1044.18 738.09L1037.32 749.71H1023.6L1016.73 738.09L1023.6 726.469H1037.32ZM1038.46 679.526L1046.46 693.076L1038.46 706.618H1022.46L1014.47 693.076L1022.46 679.526H1038.46ZM1033.9 867.3L1037.35 873.133L1033.9 878.958H1027.02L1023.58 873.133L1027.02 867.3H1033.9ZM1036.29 773.224L1042.13 783.104L1036.29 792.977H1024.63L1018.8 783.104L1024.63 773.224H1036.29ZM1032.12 915.333L1033.78 918.139L1032.12 920.954H1028.8L1027.14 918.139L1028.8 915.333H1032.12ZM1035.15 820.175L1039.84 828.118L1035.15 836.055H1025.77L1021.08 828.118L1025.77 820.175H1035.15ZM997.868 703.251L1005.14 715.583L997.868 727.907H983.311L976.033 715.583L983.311 703.251H997.868ZM954.646 866.483L958.568 873.133L954.646 879.775H946.796L942.874 873.133L946.796 866.483H954.646ZM920.057 609.954L929.269 625.554L920.057 641.154H901.633L892.429 625.554L901.633 609.954H920.057ZM921.086 563.208L931.319 580.548L921.086 597.872H900.62L890.379 580.548L900.62 563.208H921.086ZM919.028 656.709L927.212 670.569L919.028 684.421H902.67L894.486 670.569L902.67 656.709H919.028ZM917.079 750.036L923.321 760.597L917.079 771.158H904.619L898.377 760.597L904.619 750.036H917.079ZM918.007 703.455L925.17 715.583L918.007 727.703H903.69L896.536 715.583L903.69 703.455H918.007ZM957.454 726.681L964.191 738.09L957.454 749.499H943.98L937.251 738.09L943.98 726.681H957.454ZM959.488 633.218L968.244 648.061L959.488 662.905H941.954L933.19 648.061L941.954 633.218H959.488ZM958.413 680.033L966.117 693.076L958.413 706.118H943.021L935.317 693.076L943.021 680.033H958.413ZM953.68 913.131L956.642 918.139L953.68 923.155H947.763L944.8 918.139L947.763 913.131H953.68ZM960.548 586.403L970.379 603.047L960.548 619.699H940.886L931.056 603.047L940.886 586.403H960.548ZM994.867 843.363L999.159 850.618L994.867 857.873H986.304L982.019 850.618L986.304 843.363H994.867ZM955.582 819.865L960.455 828.118L955.582 836.357H945.852L940.987 828.118L945.852 819.865H955.582ZM956.495 773.322L962.265 783.104L956.495 792.879H944.947L939.177 783.104L944.947 773.322H956.495ZM794.686 912.299L798.136 918.139L794.686 923.98H787.787L784.345 918.139L787.787 912.299H794.686ZM597.955 750.308L604.027 760.597L597.955 770.878H585.812L579.74 760.597L585.812 750.308H597.955ZM598.814 703.864L605.736 715.583L598.814 727.309H584.969L578.039 715.583L584.969 703.864H598.814ZM596.362 843.053L600.833 850.618L596.362 858.199H587.413L582.942 850.618L587.413 843.053H596.362ZM599.773 657.223L607.647 670.569L599.773 683.914H584.01L576.128 670.569L584.01 657.223H599.773ZM595.627 889.3L599.371 895.64L595.627 901.972H588.14L584.404 895.64L588.14 889.3H595.627ZM597.182 796.646L602.465 805.604L597.182 814.569H586.601L581.31 805.604L586.601 796.646H597.182ZM635.963 866.006L640.171 873.133L635.963 880.252H627.556L623.348 873.133L627.556 866.006H635.963ZM636.69 819.774L641.617 828.118L636.69 836.463H626.829L621.902 828.118L626.829 819.774H636.69ZM761.342 563.646L771.32 580.548L761.342 597.441H741.394L731.409 580.548L741.394 563.646H761.342ZM638.315 726.984L644.874 738.09L638.315 749.188H625.205L618.653 738.09L625.205 726.984H638.315ZM601.714 563.889L611.553 580.548L601.714 597.192H582.053L572.222 580.548L582.053 563.889H601.714ZM600.771 610.507L609.658 625.554L600.771 640.602H583.004L574.117 625.554L583.004 610.507H600.771ZM562.268 540.67L572.524 558.033L562.268 575.396H541.771L531.515 558.033L541.771 540.67H562.268ZM635.198 912.314L638.64 918.139L635.198 923.965H628.314L624.872 918.139L628.314 912.314H635.198ZM521.8 564.199L531.453 580.548L521.8 596.881H502.502L492.849 580.548L502.502 564.199H521.8ZM520.733 611.021L529.318 625.554L520.733 640.095H503.562L494.984 625.554L503.562 611.021H520.733ZM518.002 750.679L523.857 760.597L518.002 770.515H506.284L500.429 760.597L506.284 750.679H518.002ZM501.52 553.532L490.885 535.533L501.52 517.52H522.782L533.41 535.533L522.782 553.532H501.52ZM518.884 704.174L525.621 715.583L518.884 726.984H505.41L498.674 715.583L505.41 704.174H518.884ZM519.735 657.722L527.315 670.569L519.735 683.415H504.567L496.972 670.569L504.567 657.722H519.735ZM556.103 866.21L560.187 873.133L556.103 880.047H547.928L543.852 873.133L547.928 866.21H556.103ZM558.393 727.294L564.766 738.09L558.393 748.878H545.646L539.265 738.09L545.646 727.294H558.393ZM559.282 680.782L566.537 693.076L559.282 705.37H544.757L537.501 693.076L544.757 680.782H559.282ZM560.295 634.035L568.587 648.061L560.295 662.095H543.736L535.452 648.061L543.736 634.035H560.295ZM556.823 819.978L561.633 828.118L556.823 836.259H547.208L542.405 828.118L547.208 819.978H556.823ZM555.345 912.518L558.656 918.139L555.345 923.76H548.693L545.375 918.139L548.693 912.518H555.345ZM561.262 587.387L570.513 603.047L561.262 618.708H542.769L533.526 603.047L542.769 587.387H561.262ZM557.612 773.632L563.204 783.104L557.612 792.569H546.427L540.835 783.104L546.427 773.632H557.612ZM637.464 773.428L643.18 783.104L637.464 792.773H626.048L620.339 783.104L626.048 773.428H637.464ZM701.066 575.706L690.632 558.033L701.066 540.36H721.934L732.36 558.033L721.934 575.706H701.066ZM720.983 586.978L730.473 603.047L720.983 619.116H702.01L692.527 603.047L702.01 586.978H720.983ZM719.962 633.725L728.423 648.061L719.962 662.39H703.038L694.569 648.061L703.038 633.725H719.962ZM718.09 726.931L724.68 738.09L718.09 749.249H704.91L698.32 738.09L704.91 726.931H718.09ZM755.951 842.856L760.538 850.618L755.951 858.388H746.785L742.199 850.618L746.785 842.856H755.951ZM718.956 680.441L726.42 693.076L718.956 705.71H704.036L696.58 693.076L704.036 680.441H718.956ZM756.755 796.487L762.139 805.604L756.755 814.728H745.981L740.598 805.604L745.981 796.487H756.755ZM755.216 889.126L759.06 895.64L755.216 902.146H747.52L743.676 895.64L747.52 889.126H755.216ZM759.378 657.011L767.383 670.569L759.378 684.126H743.359L735.361 670.569L743.359 657.011H759.378ZM760.375 610.302L769.378 625.554L760.375 640.806H742.369L733.358 625.554L742.369 610.302H760.375ZM639.166 680.532L646.568 693.076L639.166 705.612H624.354L616.952 693.076L624.354 680.532H639.166ZM757.568 750.104L763.755 760.597L757.568 771.083H745.177L738.981 760.597L745.177 750.104H757.568ZM758.449 703.592L765.526 715.583L758.449 727.574H744.287L737.218 715.583L744.287 703.592H758.449ZM717.27 773.322L723.04 783.104L717.27 792.879H705.722L699.952 783.104L705.722 773.322H717.27ZM676.215 842.856L680.801 850.618L676.215 858.388H667.041L662.455 850.618L667.041 842.856H676.215ZM675.472 889.126L679.316 895.64L675.472 902.146H667.784L663.94 895.64L667.784 889.126H675.472ZM621.384 575.6L611.011 558.033L621.384 540.466H642.128L652.508 558.033L642.128 575.6H621.384ZM640.163 633.831L648.571 648.061L640.163 662.292H623.356L614.956 648.061L623.356 633.831H640.163ZM641.223 587.008L650.698 603.047L641.223 619.086H622.289L612.821 603.047L622.289 587.008H641.223ZM676.98 796.548L682.325 805.604L676.98 814.667H666.276L660.931 805.604L666.276 796.548H676.98ZM677.823 750.104L684.011 760.597L677.823 771.083H665.44L659.245 760.597L665.44 750.104H677.823ZM681.59 563.677L691.545 580.548L681.59 597.403H661.673L651.711 580.548L661.673 563.677H681.59ZM715.723 865.976L719.946 873.133L715.723 880.282H707.277L703.054 873.133L707.277 865.976H715.723ZM715.004 912.216L718.508 918.139L715.004 924.071H708.004L704.5 918.139L708.004 912.216H715.004ZM679.626 657.019L687.631 670.569L679.626 684.118H663.623L655.633 670.569L663.623 657.019H679.626ZM678.705 703.592L685.79 715.583L678.705 727.574H664.543L657.474 715.583L664.543 703.592H678.705ZM716.489 819.668L721.478 828.118L716.489 836.561H706.511L701.515 828.118L706.511 819.668H716.489ZM680.6 610.363L689.565 625.554L680.6 640.746H662.663L653.691 625.554L662.663 610.363H680.6ZM754.543 935.26L755.58 937H747.157L748.185 935.26H754.543ZM62.4781 306.74L51.3789 287.955L62.4781 269.163H84.6688L95.7603 287.955L84.6688 306.74H62.4781ZM124.03 337.561L134.604 355.476L124.03 373.384H102.868L92.2875 355.476L102.868 337.561H124.03ZM261.893 464.191L250.855 445.497L261.893 426.811H283.96L294.997 445.497L283.96 464.191H261.893ZM221.967 441.79L210.867 422.998L221.967 404.205H244.157L255.249 422.998L244.157 441.79H221.967ZM182.125 419.223L171.065 400.483L182.125 381.751H204.246L215.307 400.483L204.246 419.223H182.125ZM142.4 396.466L131.487 377.976L142.4 359.501H164.235L175.149 377.976L164.235 396.466H142.4ZM43.9614 248.07L54.2252 265.448L43.9614 282.818H23.4491L13.1852 265.448L23.4491 248.07H43.9614ZM4.39099 0L14.941 17.8695L4.39099 35.7466H-8V0H4.39099ZM56.1512 220.434L44.9282 239.438H22.4823L11.2593 220.434L22.4823 201.429H44.9282L56.1512 220.434ZM18.437 62.8913L6.13892 83.7189H-8V42.0562H6.13892L18.437 62.8913ZM16.7587 107.906L5.2959 127.318H-8V88.4852H5.2959L16.7587 107.906ZM13.6184 197.927L3.72571 214.676H-8V181.177H3.72571L13.6184 197.927ZM15.1808 152.912L4.50696 170.986H-8V134.831H4.50696L15.1808 152.912ZM899.529 554.697L888.214 535.533L899.529 516.363H922.169L933.484 535.533L922.169 554.697H899.529ZM802.862 493.341L814.479 513.019L802.862 532.696H779.619L768.002 513.019L779.619 493.341H802.862ZM820.056 554.25L809.003 535.533L820.056 516.809H842.161L853.214 535.533L842.161 554.25H820.056ZM882.784 493.038L894.579 513.019L882.784 533.007H859.178L847.375 513.019L859.178 493.038H882.784ZM723.009 493.515L734.534 513.019L723.009 532.522H699.983L688.466 513.019L699.983 493.515H723.009ZM740.373 554.144L729.383 535.533L740.373 516.907H762.363L773.354 535.533L762.363 554.144H740.373ZM301.842 486.562L290.882 468.012L301.842 449.454H323.755L334.707 468.012L323.755 486.562H301.842ZM763.508 469.949L775.651 490.512L763.508 511.082H739.221L727.078 490.512L739.221 469.949H763.508ZM1059.3 599.234L1048.26 580.548L1059.3 561.854H1081.36L1092.4 580.548L1081.36 599.234H1059.3ZM341.915 508.722L331.164 490.512L341.915 472.309H363.425L374.177 490.512L363.425 508.722H341.915ZM939.827 576.485L928.929 558.033L939.827 539.581H961.623L972.513 558.033L961.623 576.485H939.827ZM1019.12 577.234L1007.78 558.033L1019.12 538.832H1041.8L1053.13 558.033L1041.8 577.234H1019.12ZM21.3607 196.323L9.02405 175.419L21.3607 154.516H46.0497L58.3865 175.419L46.0497 196.323H21.3607ZM1002.27 515.742L1013.95 535.533L1002.27 555.309H978.91L967.231 535.533L978.91 515.742H1002.27ZM938.682 533.415L926.631 513.019L938.682 492.63H962.76L974.803 513.019L962.76 533.415H938.682ZM515.032 935.767L515.752 937H508.543L509.27 935.767H515.032ZM594.97 935.434L595.89 937H587.877L588.805 935.434H594.97ZM834.187 935.434L835.115 937H827.102L828.03 935.434H834.187ZM674.815 935.26L675.836 937H667.42L668.449 935.26H674.815ZM435.048 936.175L435.528 937H429.286L429.766 936.175H435.048ZM517.252 796.956L522.372 805.604L517.252 814.259H507.035L501.93 805.604L507.035 796.956H517.252ZM-4.76685 780.736L-3.37463 783.104L-4.76685 785.465H-7.55908L-8 784.708V781.493L-7.55908 780.736H-4.76685ZM1421.3 783.104L1425.23 776.447H1431V789.762H1425.23L1421.3 783.104ZM61.3566 263.64L49.1282 242.941L61.3566 222.242H85.7981L98.0188 242.941L85.7981 263.64H61.3566ZM913.63 935.941L914.248 937H907.442L908.068 935.941H913.63ZM-6.0354 917.92L-5.91162 918.139L-6.0354 918.359H-6.29065L-6.42212 918.139L-6.29065 917.92H-6.0354ZM-5.24646 826.575L-4.34143 828.118L-5.24646 829.662H-7.07959L-7.99219 828.118L-7.07959 826.575H-5.24646ZM354.972 936.75L355.118 937H350.215L350.362 936.75H354.972ZM1428.31 739.535L1427.46 738.09L1428.31 736.653H1430.01L1430.86 738.09L1430.01 739.535H1428.31ZM1431 898.522V937H1417.12L1405.99 918.139L1417.57 898.522H1431ZM1161.95 560.431L1173.83 580.548L1161.95 600.657H1138.19L1126.31 580.548L1138.19 560.431H1161.95ZM683.725 470.024L695.837 490.512L683.725 511.006H659.523L647.426 490.512L659.523 470.024H683.725ZM460.116 488.598L447.957 468.012L460.116 447.411H484.442L496.601 468.012L484.442 488.598H460.116ZM125.191 290.58L136.924 310.462L125.191 330.344H101.708L89.9594 310.462L101.708 290.58H125.191ZM1040.66 585.783L1050.84 603.047L1040.66 620.311H1020.27L1010.07 603.047L1020.27 585.783H1040.66ZM1122.2 537.712L1134.2 558.033L1122.2 578.354H1098.19L1086.2 558.033L1098.19 537.712H1122.2ZM1399.54 833.263L1409.8 850.618L1399.54 867.981H1379.04L1368.78 850.618L1379.04 833.263H1399.54ZM1377.48 825.622L1365.65 805.604L1377.48 785.593H1401.11L1412.92 805.604L1401.11 825.622H1377.48ZM1396.99 882.597L1404.69 895.64L1396.99 908.675H1381.59L1373.9 895.64L1381.59 882.597H1396.99ZM1241.73 605.37L1253.65 625.554L1241.73 645.739H1217.89L1205.97 625.554L1217.89 605.37H1241.73ZM1201.81 582.931L1213.7 603.047L1201.81 623.164H1178.06L1166.19 603.047L1178.06 582.931H1201.81ZM1337.5 758.274L1325.58 738.09L1337.5 717.905H1361.34L1373.27 738.09L1361.34 758.274H1337.5ZM1257.58 668.556L1245.48 648.061L1257.58 627.567H1281.78L1293.88 648.061L1281.78 668.556H1257.58ZM141.279 353.358L129.228 332.962L141.279 312.58H165.357L177.4 332.962L165.357 353.358H141.279ZM1159.51 654.59L1168.94 670.569L1159.51 686.539H1140.63L1131.2 670.569L1140.63 654.59H1159.51ZM1192.36 869.025L1194.78 873.133L1192.36 877.233H1187.51L1185.09 873.133L1187.51 869.025H1192.36ZM1194.75 819.978L1199.56 828.118L1194.75 836.259H1185.14L1180.32 828.118L1185.14 819.978H1194.75ZM1150.93 894.18L1151.79 895.64L1150.93 897.085H1149.21L1148.35 895.64L1149.21 894.18H1150.93ZM1155.48 796.442L1160.89 805.604L1155.48 814.773H1144.66L1139.25 805.604L1144.66 796.442H1155.48ZM1156.93 748.969L1163.8 760.597L1156.93 772.218H1143.21L1136.34 760.597L1143.21 748.969H1156.93ZM1158.29 701.655L1166.51 715.583L1158.29 729.503H1141.85L1133.63 715.583L1141.85 701.655H1158.29ZM1236.06 795.012L1242.32 805.604L1236.06 816.195H1223.56L1217.31 805.604L1223.56 795.012H1236.06ZM1196.47 772.044L1203 783.104L1196.47 794.157H1183.41L1176.88 783.104L1183.41 772.044H1196.47ZM1230.8 893.945L1231.8 895.64L1230.8 897.319H1228.82L1227.82 895.64L1228.82 893.945H1230.8ZM1197.99 724.472L1206.02 738.09L1197.99 751.708H1181.9L1173.86 738.09L1181.9 724.472H1197.99ZM1199.25 677.309L1208.55 693.076L1199.25 708.834H1180.64L1171.33 693.076L1180.64 677.309H1199.25ZM1233.98 843.567L1238.14 850.618L1233.98 857.669H1225.65L1221.48 850.618L1225.65 843.567H1233.98ZM1153.64 844.581L1157.21 850.618L1153.64 856.663H1146.5L1142.93 850.618L1146.5 844.581H1153.64ZM1076.76 749.703L1083.2 760.597L1076.76 771.491H1063.9L1057.46 760.597L1063.9 749.703H1076.76ZM1077.91 702.752L1085.49 715.583L1077.91 728.414H1062.75L1055.17 715.583L1062.75 702.752H1077.91ZM1075.55 796.752L1080.79 805.604L1075.55 814.463H1065.1L1059.87 805.604L1065.1 796.752H1075.55ZM1074.23 844.006L1078.14 850.618L1074.23 857.238H1066.42L1062.52 850.618L1066.42 844.006H1074.23ZM1079.1 655.725L1087.86 670.569L1079.1 685.404H1061.56L1052.81 670.569L1061.56 655.725H1079.1ZM1072.29 892.319L1074.25 895.64L1072.29 898.953H1068.37L1066.4 895.64L1068.37 892.319H1072.29ZM1237.73 747.184L1245.65 760.597L1237.73 774.011H1221.89L1213.97 760.597L1221.89 747.184H1237.73ZM1118.63 678.807L1127.06 693.076L1118.63 707.344H1101.77L1093.34 693.076L1101.77 678.807H1118.63ZM1080.23 608.789L1090.13 625.554L1080.23 642.319H1060.43L1050.53 625.554L1060.43 608.789H1080.23ZM1119.87 631.682L1129.53 648.061L1119.87 664.433H1100.53L1090.86 648.061L1100.53 631.682H1119.87ZM1117.41 725.864L1124.63 738.09L1117.41 750.308H1102.98L1095.76 738.09L1102.98 725.864H1117.41ZM1114.71 820.485L1119.22 828.118L1114.71 835.752H1105.69L1101.19 828.118L1105.69 820.485H1114.71ZM1116.21 772.921L1122.23 783.104L1116.21 793.287H1104.19L1098.18 783.104L1104.19 772.921H1116.21ZM1112.86 868.624L1115.51 873.133L1112.86 877.634H1107.54L1104.88 873.133L1107.54 868.624H1112.86ZM1179.36 665.976L1168.78 648.061L1179.36 630.147H1200.52L1211.1 648.061L1200.52 665.976H1179.36ZM404.218 448.228L415.897 468.012L404.218 487.788H380.859L369.18 468.012L380.859 448.228H404.218ZM364.593 425.313L376.512 445.497L364.593 465.689H340.747L328.828 445.497L340.747 425.313H364.593ZM660.652 554.122L649.677 535.533L660.652 516.938H682.603L693.579 535.533L682.603 554.122H660.652ZM1099.4 621.333L1088.61 603.047L1099.4 584.769H1121L1131.79 603.047L1121 621.333H1099.4ZM421.01 509.819L409.617 490.512L421.01 471.212H443.804L455.205 490.512L443.804 509.819H421.01ZM1139.41 643.598L1128.76 625.554L1139.41 607.503H1160.73L1171.38 625.554L1160.73 643.598H1139.41ZM579.903 510.802L567.93 490.512L579.903 470.229H603.872L615.853 490.512L603.872 510.802H579.903ZM1219.18 688.574L1208.54 670.569L1219.18 652.563H1240.44L1251.07 670.569L1240.44 688.574H1219.18ZM643.219 493.613L654.674 513.019L643.219 532.424H620.301L608.846 513.019L620.301 493.613H643.219ZM523.966 470.501L535.784 490.512L523.966 510.53H500.329L488.51 490.512L500.329 470.501H523.966ZM461.284 531.637L450.293 513.019L461.284 494.408H483.274L494.265 513.019L483.274 531.637H461.284ZM581.032 553.91L570.18 535.533L581.032 517.142H602.743L613.595 535.533L602.743 553.91H581.032ZM540.68 532.22L529.349 513.019L540.68 493.818H563.351L574.69 513.019L563.351 532.22H540.68ZM1317.77 791.683L1325.99 805.604L1317.77 819.539H1301.33L1293.11 805.604L1301.33 791.683H1317.77ZM1258.89 711.361L1248.09 693.076L1258.89 674.79H1280.48L1291.27 693.076L1280.48 711.361H1258.89ZM1312.27 891.032L1314.99 895.64L1312.27 900.24H1306.84L1304.12 895.64L1306.84 891.032H1312.27ZM1315.68 840.231L1321.82 850.618L1315.68 861.005H1303.42L1297.28 850.618L1303.42 840.231H1315.68ZM1275.76 817.829L1281.83 828.118L1275.76 838.4H1263.61L1257.54 828.118L1263.61 817.829H1275.76ZM1273.17 867.232L1276.65 873.133L1273.17 879.026H1266.2L1262.72 873.133L1266.2 867.232H1273.17ZM1277.63 769.645L1285.57 783.104L1277.63 796.556H1261.74L1253.79 783.104L1261.74 769.645H1277.63ZM1279.15 722.051L1288.62 738.09L1279.15 754.121H1260.21L1250.74 738.09L1260.21 722.051H1279.15ZM1359.98 765.227L1370.53 783.104L1359.98 800.974H1338.86L1328.31 783.104L1338.86 765.227H1359.98ZM1320.81 696.518L1332.07 715.583L1320.81 734.648H1298.3L1287.04 715.583L1298.3 696.518H1320.81ZM1239.12 699.824L1248.42 715.583L1239.12 731.342H1220.5L1211.2 715.583L1220.5 699.824H1239.12ZM1358.25 813.169L1367.07 828.118L1358.25 843.06H1340.6L1331.76 828.118L1340.6 813.169H1358.25ZM1319.34 744.006L1329.14 760.597L1319.34 777.18H1299.75L1289.96 760.597L1299.75 744.006H1319.34ZM1355.85 862.231L1362.29 873.133L1355.85 884.019H1342.99L1336.55 873.133L1342.99 862.231H1355.85ZM1351.17 915.166L1352.93 918.139L1351.17 921.113H1347.67L1345.91 918.139L1347.67 915.166H1351.17ZM-5.67188 872.285L-5.16907 873.133L-5.67188 873.972H-6.66187L-7.15686 873.133L-6.66187 872.285H-5.67188ZM186.016 322.59L178.861 310.462L186.016 298.335H200.348L207.51 310.462L200.348 322.59H186.016ZM151.187 246.534L149.068 242.941L151.187 239.347H155.441L157.56 242.941L155.441 246.534H151.187ZM109.095 227.795L104.756 220.434L109.095 213.072H117.789L122.135 220.434L117.789 227.795H109.095ZM192.08 267.309L190.989 265.448L192.08 263.579H194.284L195.383 265.448L194.284 267.309H192.08ZM144.728 302.488L136.151 287.955L144.728 273.414H161.907L170.485 287.955L161.907 302.488H144.728ZM180.903 376.274L168.621 355.476L180.903 334.679H205.469L217.751 355.476L205.469 376.274H180.903ZM113.372 175.533L113.31 175.419L113.372 175.306H113.519L113.581 175.419L113.519 175.533H113.372ZM25.174 144.855L16.6426 130.405L25.174 115.963H42.2366L50.7678 130.405L42.2366 144.855H25.174ZM102.172 284.551L90.8875 265.448L102.172 246.353H124.727L135.996 265.448L124.727 284.551H102.172ZM32.5914 42.2756L31.47 40.3766L32.5914 38.4853H34.8191L35.9406 40.3766L34.8191 42.2756H32.5914ZM65.2239 212.066L56.8783 197.927L65.2239 183.787H81.9308L90.2765 197.927L81.9308 212.066H65.2239ZM70.6305 157.89L67.699 152.912L70.6305 147.927H76.5165L79.4557 152.912L76.5165 157.89H70.6305ZM29.5981 92.336L25.4988 85.3909L29.5981 78.4458H37.8046L41.9117 85.3909L37.8046 92.336H29.5981ZM427.298 409.138L422.186 400.483L427.298 391.836H437.516L442.628 400.483L437.516 409.138H427.298ZM350.71 358.798L348.745 355.476L350.71 352.148H354.623L356.588 355.476L354.623 358.798H350.71ZM305.16 390.92L297.519 377.976L305.16 365.039H320.429L328.078 377.976L320.429 390.92H305.16ZM311.572 335.035L310.358 332.962L311.572 330.896H314.017L315.239 332.962L314.017 335.035H311.572ZM381.138 442.305L369.729 422.998L381.138 403.676H403.94L415.34 422.998L403.94 442.305H381.138ZM343.486 416.045L334.297 400.483L343.486 384.929H361.855L371.044 400.483L361.855 416.045H343.486ZM389.267 383.514L386.003 377.976L389.267 372.453H395.803L399.074 377.976L395.803 383.514H389.267ZM260.647 421.288L248.365 400.483L260.647 379.693H285.205L297.495 400.483L285.205 421.288H260.647ZM226.321 344.378L219.584 332.962L226.321 321.561H239.787L246.532 332.962L239.787 344.378H226.321ZM232.323 289.188L231.588 287.955L232.323 286.714H233.785L234.52 287.955L233.785 289.188H232.323ZM266.186 366.877L259.456 355.476L266.186 344.068H279.667L286.396 355.476L279.667 366.877H266.186ZM220.714 398.887L208.377 377.976L220.714 357.08H245.395L257.747 377.976L245.395 398.887H220.714ZM300.698 443.485L288.6 422.998L300.698 402.503H324.899L337.004 422.998L324.899 443.485H300.698ZM-1.33264 693.076L-3.74597 697.169H-8V688.983H-3.74597L-1.33264 693.076ZM272.172 311.741L271.414 310.462L272.172 309.184H273.68L274.438 310.462L273.68 311.741H272.172ZM39.777 480.238L45.8486 490.512L39.777 500.801H27.6335L21.5619 490.512L27.6335 480.238H39.777ZM75.8745 779.208L78.1718 783.104L75.8745 786.993H71.2802L68.9829 783.104L71.2802 779.208H75.8745ZM36.9692 665.046L40.2256 670.569L36.9692 676.091H30.449L27.1849 670.569L30.449 665.046H36.9692ZM40.504 433.99L47.295 445.497L40.504 457.004H26.9142L20.1155 445.497L26.9142 433.99H40.504ZM37.6267 618.912L41.5482 625.554L37.6267 632.197H29.7838L25.8546 625.554L29.7838 618.912H37.6267ZM38.2687 572.808L42.8398 580.548L38.2687 588.272H29.134L24.5707 580.548L29.134 572.808H38.2687ZM74.3044 916.906L75.0392 918.139L74.3044 919.38H72.8503L72.1155 918.139L72.8503 916.906H74.3044ZM75.2944 825.206L77.0193 828.118L75.2944 831.031H71.8602L70.1354 828.118L71.8602 825.206H75.2944ZM36.3737 711.066L39.0344 715.583L36.3737 720.099H31.0367L28.3761 715.583L31.0367 711.066H36.3737ZM41.2852 387.652L48.8651 400.483L41.2852 413.322H26.1252L18.5531 400.483L26.1252 387.652H41.2852ZM42.1747 341.14L50.6364 355.476L42.1747 369.805H25.2435L16.774 355.476L25.2435 341.14H42.1747ZM43.0564 294.628L52.4076 310.462L43.0564 326.297H24.354L15.0106 310.462L24.354 294.628H43.0564ZM-2.40002 738.09L-4.28735 741.275H-8V734.897H-4.28735L-2.40002 738.09ZM74.7916 871.067L76.0138 873.133L74.7916 875.19H72.363L71.141 873.133L72.363 871.067H74.7916ZM35.8246 757.011L37.9362 760.597L35.8246 764.183H31.5859L29.4744 760.597L31.5859 757.011H35.8246ZM6.34009 422.998L0.0904541 433.582H-8V412.406H0.0904541L6.34009 422.998ZM4.89368 468.012L-0.628906 477.37H-8V458.638H-0.628906L4.89368 468.012ZM2.27942 558.033L-1.94373 565.19H-8V550.884H-1.94373L2.27942 558.033ZM-0.234375 648.061L-3.19678 653.077H-8V643.038H-3.19678L-0.234375 648.061ZM0.956787 603.047L-2.60889 609.077H-8V597.018H-2.60889L0.956787 603.047ZM3.57104 513.019L-1.29407 521.265H-8V504.78H-1.29407L3.57104 513.019ZM34.324 894.596L34.9427 895.64L34.324 896.676H33.0942L32.4677 895.64L33.0942 894.596H34.324ZM34.8036 848.757L35.9097 850.618L34.8036 852.487H32.6069L31.5009 850.618L32.6069 848.757H34.8036ZM35.2754 802.941L36.8533 805.604L35.2754 808.274H32.1351L30.5573 805.604L32.1351 802.941H35.2754ZM9.10913 332.962L1.47498 345.906H-8V320.032H1.47498L9.10913 332.962ZM7.75549 377.976L0.794312 389.763H-8V366.197H0.794312L7.75549 377.976ZM10.6483 287.955L2.24072 302.193H-8V273.724H2.24072L10.6483 287.955ZM12.0869 242.941L2.96008 258.397H-8V227.485H2.96008L12.0869 242.941ZM38.9957 526.568L44.2863 535.533L38.9957 544.483H28.4225L23.1243 535.533L28.4225 526.568H38.9957ZM1108.69 470.569L1107.17 468.012L1108.69 465.447H1111.71L1113.22 468.012L1111.71 470.569H1108.69ZM1101.92 527.045L1093.63 513.019L1101.92 498.992H1118.49L1126.77 513.019L1118.49 527.045H1101.92ZM1063.56 501.988L1056.78 490.512L1063.56 479.035H1077.11L1083.88 490.512L1077.11 501.988H1063.56ZM1187.41 517.316L1184.87 513.019L1187.41 508.722H1192.48L1195.02 513.019L1192.48 517.316H1187.41ZM1147.89 494.211L1145.7 490.512L1147.89 486.812H1152.25L1154.44 490.512L1152.25 494.211H1147.89ZM1140.7 551.398L1131.34 535.533L1140.7 519.661H1159.44L1168.8 535.533L1159.44 551.398H1140.7ZM1058.04 556.331L1045.77 535.533L1058.04 514.729H1082.61L1094.9 535.533L1082.61 556.331H1058.04ZM987.271 451.118L983.945 445.497L987.271 439.876H993.915L997.226 445.497L993.915 451.118H987.271ZM444.871 466.605H419.943L407.482 445.497L419.943 424.397H444.871L457.332 445.497L444.871 466.605ZM1025.23 476.864L1020 468.012L1025.23 459.153H1035.69L1040.92 468.012L1035.69 476.864H1025.23ZM1069.58 446.783L1068.82 445.497L1069.58 444.226H1071.08L1071.84 445.497L1071.08 446.783H1069.58ZM1180.08 574.722L1170.23 558.033L1180.08 541.344H1199.8L1209.66 558.033L1199.8 574.722H1180.08ZM1018 534.126L1005.53 513.019L1018 491.919H1042.92L1055.39 513.019L1042.92 534.126H1018ZM1413.68 828.118L1421.42 815.008H1431V841.229H1421.42L1413.68 828.118ZM1227.39 539.626L1224.97 535.533L1227.39 531.433H1232.23L1234.65 535.533L1232.23 539.626H1227.39ZM1339.53 709.826L1329.64 693.076L1339.53 676.326H1359.31L1369.2 693.076L1359.31 709.826H1339.53ZM1388.41 672.051L1387.54 670.569L1388.41 669.086H1390.17L1391.04 670.569L1390.17 672.051H1388.41ZM1406.01 873.133L1417.58 853.523H1431V892.735H1417.58L1406.01 873.133ZM942.255 482.341L933.794 468.012L942.255 453.676H959.187L967.648 468.012L959.187 482.341H942.255ZM1384.36 723.927L1379.43 715.583L1384.36 707.238H1394.22L1399.15 715.583L1394.22 723.927H1384.36ZM1378.68 778.573L1368.06 760.597L1378.68 742.622H1399.91L1410.52 760.597L1399.91 778.573H1378.68ZM1267.81 561.21L1265.93 558.033L1267.81 554.855H1271.56L1273.43 558.033L1271.56 561.21H1267.81ZM1220.44 596.412L1211.07 580.548L1220.44 564.668H1239.18L1248.56 580.548L1239.18 596.412H1220.44ZM1261.58 616.771L1253.47 603.047L1261.58 589.331H1277.78L1285.89 603.047L1277.78 616.771H1261.58ZM1297.09 691.676L1284.63 670.569L1297.09 649.461H1322.01L1334.48 670.569L1322.01 691.676H1297.09ZM1303.42 635.942L1297.28 625.554L1303.42 615.167H1315.68L1321.82 625.554L1315.68 635.942H1303.42ZM1345.8 654.197L1342.18 648.061L1345.8 641.933H1353.04L1356.67 648.061L1353.04 654.197H1345.8ZM1308.61 582.129L1307.67 580.548L1308.61 578.959H1310.49L1311.42 580.548L1310.49 582.129H1308.61ZM979.374 509.508L968.159 490.512L979.374 471.522H1001.8L1013.03 490.512L1001.8 509.508H979.374ZM663.507 459.251L655.393 445.497L663.507 431.751H679.742L687.871 445.497L679.742 459.251H663.507ZM590.012 403.661L588.132 400.483L590.012 397.313H593.763L595.635 400.483L593.763 403.661H590.012ZM546.45 432.417L540.881 422.998L546.45 413.571H557.588L563.149 422.998L557.588 432.417H546.45ZM670.205 402.889L668.789 400.483L670.205 398.085H673.043L674.467 400.483L673.043 402.889H670.205ZM644.278 489.218H619.233L606.711 468.012L619.233 446.799H644.278L656.808 468.012L644.278 489.218ZM627.223 430.669L622.691 422.998L627.223 415.319H636.288L640.821 422.998L636.288 430.669H627.223ZM582.942 460.651L574.001 445.497L582.942 430.351H600.833L609.782 445.497L600.833 460.651H582.942ZM471.192 379.829L470.094 377.976L471.192 376.13H473.366L474.464 377.976L473.366 379.829H471.192ZM464.687 435.836L457.107 422.998L464.687 410.152H479.863L487.451 422.998L479.863 435.836H464.687ZM551.95 378.097L551.88 377.976L551.95 377.87H552.081L552.151 377.976L552.081 378.097H551.95ZM509.193 405.499L506.23 400.483L509.193 395.475H515.11L518.064 400.483L515.11 405.499H509.193ZM564.426 489.014H539.613L527.214 468.012L539.613 447.003H564.426L576.824 468.012L564.426 489.014ZM501.296 463.881L490.436 445.497L501.296 427.121H523.007L533.851 445.497L523.007 463.881H501.296ZM910.775 400.604L910.714 400.483L910.775 400.37H910.922L910.984 400.483L910.922 400.604H910.775ZM867.956 428.104L864.94 422.998L867.956 417.884H873.997L877.021 422.998L873.997 428.104H867.956ZM707.277 430.147L703.054 422.998L707.277 415.841H715.723L719.946 422.998L715.723 430.147H707.277ZM949.147 425.661L947.577 422.998L949.147 420.335H952.295L953.873 422.998L952.295 425.661H949.147ZM905.261 454.969L899.668 445.497L905.261 436.033H916.437L922.029 445.497L916.437 454.969H905.261ZM823.954 457.625L816.792 445.497L823.954 433.385H838.263L845.425 445.497L838.263 457.625H823.954ZM923.251 511.521H898.446L886.048 490.512L898.446 469.51H923.251L935.658 490.512L923.251 511.521ZM860.059 486.494L849.154 468.012L860.059 449.522H881.894L892.808 468.012L881.894 486.494H860.059ZM750.042 402.745L748.696 400.483L750.042 398.229H752.702L754.041 400.483L752.702 402.745H750.042ZM515.705 889.61L519.271 895.64L515.705 901.662H508.589L505.024 895.64L508.589 889.61H515.705ZM723.961 489.112H699.039L686.571 468.012L699.039 446.905H723.961L736.421 468.012L723.961 489.112ZM830.25 401.943L829.391 400.483L830.25 399.038H831.967L832.826 400.483L831.967 401.943H830.25ZM843.391 469.714L855.674 490.512L843.391 511.316H818.826L806.543 490.512L818.826 469.714H843.391ZM779 488.741L766.756 468.012L779 447.275H803.48L815.724 468.012L803.48 488.741H779ZM787.315 429.633L783.394 422.998L787.315 416.348H795.166L799.087 422.998L795.166 429.633H787.315ZM743.444 458.918L735.524 445.497L743.444 432.091H759.285L767.213 445.497L759.285 458.918H743.444ZM355.544 890.753L358.429 895.64L355.544 900.512H349.789L346.904 895.64L349.789 890.753H355.544ZM356.224 844.588L359.79 850.618L356.224 856.648H349.109L345.543 850.618L349.109 844.588H356.224ZM356.99 798.28L361.322 805.604L356.99 812.935H348.343L344.019 805.604L348.343 798.28H356.99ZM322.687 496.276L332.572 513.019L322.687 529.769H302.902L293.017 513.019L302.902 496.276H322.687ZM319.663 636.441L326.516 648.061L319.663 659.682H305.934L299.073 648.061L305.934 636.441H319.663ZM321.682 542.985L330.569 558.033L321.682 573.088H303.907L295.028 558.033L303.907 542.985H321.682ZM320.653 589.732L328.519 603.047L320.653 616.362H304.936L297.07 603.047L304.936 589.732H320.653ZM362.397 519.056L372.119 535.533L362.397 552.003H342.936L333.214 535.533L342.936 519.056H362.397ZM357.795 751.912L362.923 760.597L357.795 769.275H347.538L342.41 760.597L347.538 751.912H357.795ZM361.322 565.886L369.969 580.548L361.322 595.194H344.019L335.364 580.548L344.019 565.886H361.322ZM360.347 612.549L368.028 625.554L360.347 638.567H344.986L337.306 625.554L344.986 612.549H360.347ZM358.584 705.559L364.501 715.583L358.584 725.599H346.75L340.833 715.583L346.75 705.559H358.584ZM359.403 659.167L366.14 670.569L359.403 681.977H345.93L339.193 670.569L345.93 659.167H359.403ZM280.874 567.081L288.825 580.548L280.874 593.999H264.987L257.035 580.548L264.987 567.081H280.874ZM395.973 867.3L399.422 873.133L395.973 878.958H389.097L385.655 873.133L389.097 867.3H395.973ZM279.907 613.745L286.876 625.554L279.907 637.372H265.946L258.969 625.554L265.946 613.745H279.907ZM281.879 520.365L290.836 535.533L281.879 550.695H263.973L255.017 535.533L263.973 520.365H281.879ZM279.056 660.181L285.19 670.569L279.056 680.956H266.797L260.663 670.569L266.797 660.181H279.056ZM277.447 752.933L281.98 760.597L277.447 768.261H268.405L263.873 760.597L268.405 752.933H277.447ZM278.244 706.588L283.557 715.583L278.244 724.586H267.609L262.295 715.583L267.609 706.588H278.244ZM316.453 821.907L320.127 828.118L316.453 834.322H309.136L305.47 828.118L309.136 821.907H316.453ZM318.031 729.231L323.252 738.09L318.031 746.949H307.566L302.337 738.09L307.566 729.231H318.031ZM317.203 775.645L321.604 783.104L317.203 790.564H308.393L303.992 783.104L308.393 775.645H317.203ZM315.161 914.137L317.528 918.139L315.161 922.149H310.428L308.069 918.139L310.428 914.137H315.161ZM318.812 682.885L324.837 693.076L318.812 703.266H306.777L300.759 693.076L306.777 682.885H318.812ZM315.757 868.109L318.735 873.133L315.757 878.149H309.832L306.862 873.133L309.832 868.109H315.757ZM282.939 473.557L292.947 490.512L282.939 507.473H262.914L252.905 490.512L262.914 473.557H282.939ZM382.004 530.858L371.462 513.019L382.004 495.179H403.073L413.608 513.019L403.073 530.858H382.004ZM476.808 820.455L481.325 828.118L476.808 835.782H467.75L463.233 828.118L467.75 820.455H476.808ZM475.361 912.927L478.44 918.139L475.361 923.359H469.197L466.118 918.139L469.197 912.927H475.361ZM476.065 866.717L479.847 873.133L476.065 879.541H468.493L464.711 873.133L468.493 866.717H476.065ZM441.654 564.88L450.897 580.548L441.654 596.201H423.16L413.917 580.548L423.16 564.88H441.654ZM477.589 774.101L482.903 783.104L477.589 792.099H466.969L461.648 783.104L466.969 774.101H477.589ZM442.682 518.125L452.962 535.533L442.682 552.934H422.124L411.852 535.533L422.124 518.125H442.682ZM478.416 727.703L484.542 738.09L478.416 748.47H466.142L460.008 738.09L466.142 727.703H478.416ZM482.253 541.139L492.231 558.033L482.253 574.927H462.305L452.32 558.033L462.305 541.139H482.253ZM516.44 843.355L520.733 850.618L516.44 857.888H507.862L503.562 850.618L507.862 843.355H516.44ZM480.281 634.519L488.278 648.061L480.281 661.611H464.278L456.272 648.061L464.278 634.519H480.281ZM479.29 681.198L486.298 693.076L479.29 704.953H465.268L458.252 693.076L465.268 681.198H479.29ZM440.656 611.589L448.901 625.554L440.656 639.52H424.158L415.913 625.554L424.158 611.589H440.656ZM481.232 587.886L490.181 603.047L481.232 618.208H463.326L454.369 603.047L463.326 587.886H481.232ZM399.09 681.977L405.649 693.076L399.09 704.174H385.98L379.428 693.076L385.98 681.977H399.09ZM439.635 658.335L446.859 670.569L439.635 682.802H425.179L417.955 670.569L425.179 658.335H439.635ZM401 588.711L409.47 603.047L401 617.376H384.069L375.608 603.047L384.069 588.711H401ZM395.261 913.532L397.992 918.139L395.261 922.762H389.816L387.086 918.139L389.816 913.532H395.261ZM396.7 821.068L400.861 828.118L396.7 835.169H388.377L384.216 828.118L388.377 821.068H396.7ZM398.27 728.376L404.009 738.09L398.27 747.804H386.807L381.06 738.09L386.807 728.376H398.27ZM397.489 774.714L402.447 783.104L397.489 791.494H387.581L382.631 783.104L387.581 774.714H397.489ZM399.995 635.435L407.451 648.061L399.995 660.696H385.083L377.619 648.061L385.083 635.435H399.995ZM437.152 797.569L441.901 805.604L437.152 813.653H427.662L422.913 805.604L427.662 797.569H437.152ZM437.98 751.171L443.541 760.597L437.98 770.024H426.842L421.273 760.597L426.842 751.171H437.98ZM438.776 704.795L445.157 715.583L438.776 726.379H426.037L419.656 715.583L426.037 704.795H438.776ZM402.068 541.896L411.597 558.033L402.068 574.178H383.01L373.48 558.033L383.01 541.896H402.068ZM276.674 799.271L280.417 805.604L276.674 811.944H269.187L265.443 805.604L269.187 799.271H276.674ZM436.433 843.802L440.455 850.618L436.433 857.434H428.381L424.359 850.618L428.381 843.802H436.433ZM435.667 890.109L438.931 895.64L435.667 901.155H429.147L425.883 895.64L429.147 890.109H435.667ZM117.069 709.447L120.689 715.583L117.069 721.718H109.822L106.202 715.583L109.822 709.447H117.069ZM158.566 639.172L163.81 648.061L158.566 656.943H148.07L142.818 648.061L148.07 639.172H158.566ZM121.006 477.711L128.563 490.512L121.006 503.312H105.885L98.3282 490.512L105.885 477.711H121.006ZM120.163 524.147L126.877 535.533L120.163 546.904H106.728L100.007 535.533L106.728 524.147H120.163ZM118.554 616.907L123.667 625.554L118.554 634.209H108.337L103.232 625.554L108.337 616.907H118.554ZM119.343 570.569L125.229 580.548L119.343 590.519H107.556L101.662 580.548L107.556 570.569H119.343ZM122.979 384.346L132.5 400.483L122.979 416.628H103.92L94.3835 400.483L103.92 384.346H122.979ZM155.193 869.948L157.081 873.133L155.193 876.31H151.434L149.547 873.133L151.434 869.948H155.193ZM117.789 663.215L122.135 670.569L117.789 677.93H109.095L104.756 670.569L109.095 663.215H117.789ZM275.351 891.532L277.772 895.64L275.351 899.74H270.501L268.073 895.64L270.501 891.532H275.351ZM157.057 731.75L160.801 738.09L157.057 744.422H149.57L145.827 738.09L149.57 731.75H157.057ZM154.652 915.885L155.982 918.139L154.652 920.401H151.983L150.653 918.139L151.983 915.885H154.652ZM155.742 824.01L158.163 828.118L155.742 832.227H150.893L148.464 828.118L150.893 824.01H155.742ZM156.392 777.884L159.478 783.104L156.392 788.317H150.235L147.157 783.104L150.235 777.884H156.392ZM121.965 431.062L130.497 445.497L121.965 459.932H104.918L96.4023 445.497L104.918 431.062H121.965ZM80.0126 502.125L86.4401 513.019L80.0126 523.913H67.1421L60.7069 513.019L67.1421 502.125H80.0126ZM79.2236 548.47L84.8777 558.033L79.2236 567.611H67.9233L62.277 558.033L67.9233 548.47H79.2236ZM76.416 733.278L79.2545 738.09L76.416 742.894H70.7388L67.9001 738.09L70.7388 733.278H76.416ZM78.4502 594.801L83.3153 603.047L78.4502 611.286H68.7045L63.8395 603.047L68.7045 594.801H78.4502ZM77.027 687.235L80.4689 693.076L77.027 698.916H70.1277L66.6781 693.076L70.1277 687.235H77.027ZM80.7938 455.786L88.0103 468.012L80.7938 480.238H66.361L59.1367 468.012L66.361 455.786H80.7938ZM77.7385 641.01L81.9076 648.061L77.7385 655.112H69.4083L65.2472 648.061L69.4083 641.01H77.7385ZM114.741 893.438L116.041 895.64L114.741 897.834H112.142L110.851 895.64L112.142 893.438H114.741ZM115.808 801.609L118.175 805.604L115.808 809.613H111.083L108.716 805.604L111.083 801.609H115.808ZM116.412 755.574L119.374 760.597L116.412 765.613H110.479L107.509 760.597L110.479 755.574H116.412ZM81.7528 409.138L89.9362 422.998L81.7528 436.85H65.394L57.2108 422.998L65.394 409.138H81.7528ZM82.6423 362.626L91.7074 377.976L82.6423 393.334H64.5123L55.4474 377.976L64.5123 362.626H82.6423ZM83.6014 315.985L93.641 332.962L83.6014 349.954H63.5455L53.5137 332.962L63.5455 315.985H83.6014ZM115.267 847.539L117.085 850.618L115.267 853.705H111.624L109.799 850.618L111.624 847.539H115.267ZM157.777 685.518L162.247 693.076L157.777 700.634H148.851L144.38 693.076L148.851 685.518H157.777ZM238.372 684.073L243.685 693.076L238.372 702.079H227.744L222.431 693.076L227.744 684.073H238.372ZM237.583 730.426L242.1 738.09L237.583 745.746H228.533L224.008 738.09L228.533 730.426H237.583ZM236.863 776.658L240.661 783.104L236.863 789.535H229.253L225.455 783.104L229.253 776.658H236.863ZM235.533 868.934L238.008 873.133L235.533 877.324H230.583L228.1 873.133L230.583 868.934H235.533ZM236.183 822.83L239.292 828.118L236.183 833.399H229.941L226.816 828.118L229.941 822.83H236.183ZM234.992 914.864L236.933 918.139L234.992 921.423H231.117L229.191 918.139L231.117 914.864H234.992ZM239.192 637.674L245.325 648.061L239.192 658.449H226.917L220.791 648.061L226.917 637.674H239.192ZM276.001 845.405L279.079 850.618L276.001 855.838H269.852L266.766 850.618L269.852 845.405H276.001ZM243.067 451.058L253.083 468.012L243.067 484.966H223.042L213.033 468.012L223.042 451.058H243.067ZM203.133 428.649L213.095 445.497L203.133 462.361H183.231L173.285 445.497L183.231 428.649H203.133ZM240.073 591.162L247.096 603.047L240.073 614.932H226.035L219.02 603.047L226.035 591.162H240.073ZM242.069 497.767L251.064 513.019L242.069 528.271H224.055L215.044 513.019L224.055 497.767H242.069ZM241.056 544.483L249.061 558.033L241.056 571.583H225.053L217.063 558.033L225.053 544.483H241.056ZM196.303 800.323L199.428 805.604L196.303 810.9H190.061L186.936 805.604L190.061 800.323H196.303ZM163.098 406.414L172.898 422.998L163.098 439.574H143.53L133.737 422.998L143.53 406.414H163.098ZM195.669 846.419L198.152 850.618L195.669 854.832H190.703L188.22 850.618L190.703 846.419H195.669ZM161.141 499.779L168.953 513.019L161.141 526.266H145.502L137.674 513.019L145.502 499.779H161.141ZM202.127 475.366L211.076 490.512L202.127 505.665H184.245L175.296 490.512L184.245 475.366H202.127ZM195.12 892.356L197.053 895.64L195.12 898.908H191.252L189.311 895.64L191.252 892.356H195.12ZM162.085 453.161L170.841 468.012L162.085 482.848H144.55L135.787 468.012L144.55 453.161H162.085ZM160.182 546.412L167.043 558.033L160.182 569.661H146.453L139.593 558.033L146.453 546.412H160.182ZM200.163 568.73L207.139 580.548L200.163 592.357H186.209L179.233 580.548L186.209 568.73H200.163ZM201.137 522.067L209.081 535.533L201.137 548.985H185.242L177.299 535.533L185.242 522.067H201.137ZM199.319 615.167L205.453 625.554L199.319 635.942H187.052L180.919 625.554L187.052 615.167H199.319ZM159.37 592.789L165.419 603.047L159.37 613.306H147.258L141.209 603.047L147.258 592.789H159.37ZM198.5 661.566L203.813 670.569L198.5 679.571H187.865L182.558 670.569L187.865 661.566H198.5ZM196.984 754.159L200.789 760.597L196.984 767.035H189.38L185.583 760.597L189.38 754.159H196.984ZM188.661 707.919L184.136 715.583L188.661 723.247H197.711L202.235 715.583L197.711 707.919H188.661Z" fill="#ECF5FD"/>
</svg>
