<svg width="1436" height="878" viewBox="0 0 1436 878" fill="none" xmlns="http://www.w3.org/2000/svg">
<path d="M553.701 855.06L550.383 860.327L553.701 865.594H560.337L563.663 860.327L560.337 855.06H553.701ZM552.092 768.155L547.165 775.974L552.092 783.794H561.954L566.873 775.974L561.954 768.155H552.092ZM513.551 833.523L509.946 839.244L513.551 844.958H520.759L524.356 839.244L520.759 833.523H513.551ZM587.826 571.774L578.761 586.165L587.826 600.549H605.956L615.021 586.165L605.956 571.774H587.826ZM551.249 724.628L545.479 733.795L551.249 742.954H562.789L568.567 733.795L562.789 724.628H551.249ZM586.86 528.07L576.835 543.992L586.86 559.9H606.923L616.947 543.992L606.923 528.07H586.86ZM567.654 539.767L578.29 522.895L567.654 506.03H546.392L535.765 522.895L546.392 539.767H567.654ZM512.684 789.975L508.221 797.057L512.684 804.146H521.618L526.081 797.057L521.618 789.975H512.684ZM550.406 681.116L543.785 691.615L550.406 702.114H563.632L570.253 691.615L563.632 681.116H550.406ZM588.824 615.542L580.757 628.345L588.824 641.148H604.959L613.026 628.345L604.959 615.542H588.824ZM632.556 811.476L628.348 818.154L632.556 824.825H640.971L645.179 818.154L640.971 811.476H632.556ZM547.374 549.763L537.721 565.075L547.374 580.395H566.672L576.325 565.075L566.672 549.763H547.374ZM548.473 593.694L539.926 607.255L548.473 620.823H565.566L574.113 607.255L565.566 593.694H548.473ZM552.874 811.576L548.728 818.154L552.874 824.726H561.165L565.311 818.154L561.165 811.576H552.874ZM628.294 593.814L619.817 607.255L628.294 620.696H645.233L653.702 607.255L645.233 593.814H628.294ZM629.292 637.589L621.828 649.435L629.292 661.281H644.227L651.691 649.435L644.227 637.589H629.292ZM589.791 659.26L582.698 670.525L589.791 681.789H603.992L611.084 670.525L603.992 659.26H589.791ZM388.435 592.8L379.324 607.255L388.435 621.71H406.65L415.761 607.255L406.65 592.8H388.435ZM630.986 724.628L625.216 733.795L630.986 742.954H642.534L648.304 733.795L642.534 724.628H630.986ZM631.775 768.056L626.786 775.974L631.775 783.886H641.752L646.741 775.974L641.752 768.056H631.775ZM630.174 681.158L623.584 691.615L630.174 702.071H643.346L649.936 691.615L643.346 681.158H630.174ZM590.704 702.872L584.5 712.705L590.704 722.53H603.087L609.275 712.705L603.087 702.872H590.704ZM627.227 549.954L617.698 565.075L627.227 580.196H646.293L655.822 565.075L646.293 549.954H627.227ZM591.539 746.392L586.194 754.877L591.539 763.37H602.236L607.588 754.877L602.236 746.392H591.539ZM647.259 539.548L657.748 522.895L647.259 506.25H626.268L615.772 522.895L626.268 539.548H647.259ZM592.328 789.812L587.757 797.057L592.328 804.309H601.463L606.026 797.057L601.463 789.812H592.328ZM593.14 833.289L589.389 839.244L593.14 845.192H600.643L604.386 839.244L600.643 833.289H593.14ZM549.463 637.433L541.898 649.435L549.463 661.437H564.584L572.141 649.435L564.584 637.433H549.463ZM447.907 560.652L458.41 543.992L447.907 527.326H426.907L416.411 543.992L426.907 560.652H447.907ZM427.944 571.136L418.469 586.165L427.944 601.187H446.886L456.345 586.165L446.886 571.136H427.944ZM434.209 834.161L431.014 839.244L434.209 844.32H440.613L443.807 839.244L440.613 834.161H434.209ZM432.12 746.484L426.837 754.877L432.12 763.278H442.701L447.992 754.877L442.701 746.484H432.12ZM511.803 746.392L506.45 754.877L511.803 763.37H522.5L527.852 754.877L522.5 746.392H511.803ZM431.153 702.773L424.888 712.705L431.153 722.636H443.668L449.933 712.705L443.668 702.773H431.153ZM429.042 615.067L420.673 628.345L429.042 641.623H445.772L454.149 628.345L445.772 615.067H429.042ZM390.678 680.726L383.817 691.615L390.678 702.503H404.399L411.268 691.615L404.399 680.726H390.678ZM389.541 636.738L381.536 649.435L389.541 662.124H405.544L413.534 649.435L405.544 636.738H389.541ZM394.104 812.689L390.655 818.154L394.104 823.613H400.981L404.422 818.154L400.981 812.689H394.104ZM391.707 724.536L385.875 733.795L391.707 743.046H403.371L409.202 733.795L403.371 724.536H391.707ZM395.883 857.697L394.22 860.327L395.883 862.964H399.202L400.865 860.327L399.202 857.697H395.883ZM392.851 768.531L388.164 775.974L392.851 783.411H402.234L406.921 775.974L402.234 768.531H392.851ZM430.132 658.97L422.862 670.525L430.132 682.073H444.689L451.967 670.525L444.689 658.97H430.132ZM473.354 811.923L469.432 818.154L473.354 824.378H481.204L485.126 818.154L481.204 811.923H473.354ZM507.943 571.547L498.731 586.165L507.943 600.783H526.367L535.571 586.165L526.367 571.547H507.943ZM506.914 527.744L496.681 543.992L506.914 560.226H527.38L537.621 543.992L527.38 527.744H506.914ZM508.972 615.358L500.788 628.345L508.972 641.325H525.33L533.514 628.345L525.33 615.358H508.972ZM510.921 702.808L504.679 712.705L510.921 722.601H523.381L529.623 712.705L523.381 702.808H510.921ZM509.993 659.161L502.83 670.525L509.993 681.881H524.31L531.464 670.525L524.31 659.161H509.993ZM470.546 680.924L463.809 691.615L470.546 702.305H484.02L490.749 691.615L484.02 680.924H470.546ZM468.512 593.346L459.756 607.255L468.512 621.164H486.046L494.81 607.255L486.046 593.346H468.512ZM469.587 637.213L461.883 649.435L469.587 661.656H484.979L492.683 649.435L484.979 637.213H469.587ZM474.32 855.634L471.358 860.327L474.32 865.027H480.237L483.2 860.327L480.237 855.634H474.32ZM467.452 549.479L457.621 565.075L467.452 580.678H487.114L496.944 565.075L487.114 549.479H467.452ZM433.133 790.259L428.841 797.057L433.133 803.856H441.696L445.981 797.057L441.696 790.259H433.133ZM472.418 768.24L467.545 775.974L472.418 783.694H482.148L487.013 775.974L482.148 768.24H472.418ZM471.505 724.628L465.735 733.795L471.505 742.954H483.053L488.823 733.795L483.053 724.628H471.505ZM633.314 854.854L629.864 860.327L633.314 865.8H640.213L643.655 860.327L640.213 854.854H633.314ZM830.045 703.064L823.973 712.705L830.045 722.339H842.188L848.26 712.705L842.188 703.064H830.045ZM829.186 659.544L822.264 670.525L829.186 681.513H843.031L849.961 670.525L843.031 659.544H829.186ZM831.638 789.968L827.167 797.057L831.638 804.16H840.587L845.058 797.057L840.587 789.968H831.638ZM828.227 615.84L820.353 628.345L828.227 640.85H843.99L851.872 628.345L843.99 615.84H828.227ZM832.373 833.304L828.629 839.244L832.373 845.178H839.86L843.596 839.244L839.86 833.304H832.373ZM830.818 746.484L825.535 754.877L830.818 763.278H841.399L846.69 754.877L841.399 746.484H830.818ZM792.037 811.476L787.829 818.154L792.037 824.825H800.444L804.652 818.154L800.444 811.476H792.037ZM791.31 768.155L786.383 775.974L791.31 783.794H801.171L806.098 775.974L801.171 768.155H791.31ZM666.658 528.155L656.68 543.992L666.658 559.822H686.606L696.591 543.992L686.606 528.155H666.658ZM789.685 681.208L783.126 691.615L789.685 702.014H802.795L809.347 691.615L802.795 681.208H789.685ZM826.286 528.382L816.447 543.992L826.286 559.588H845.947L855.778 543.992L845.947 528.382H826.286ZM827.229 572.065L818.342 586.165L827.229 600.265H844.996L853.883 586.165L844.996 572.065H827.229ZM865.732 506.626L855.476 522.895L865.732 539.165H886.229L896.485 522.895L886.229 506.626H865.732ZM792.802 854.868L789.36 860.327L792.802 865.786H799.686L803.128 860.327L799.686 854.868H792.802ZM906.2 528.673L896.547 543.992L906.2 559.298H925.498L935.151 543.992L925.498 528.673H906.2ZM907.267 572.547L898.682 586.165L907.267 599.79H924.438L933.016 586.165L924.438 572.547H907.267ZM909.998 703.411L904.143 712.705L909.998 721.998H921.716L927.571 712.705L921.716 703.411H909.998ZM926.48 518.677L937.115 501.813L926.48 484.934H905.218L894.59 501.813L905.218 518.677H926.48ZM909.116 659.835L902.379 670.525L909.116 681.208H922.59L929.326 670.525L922.59 659.835H909.116ZM908.265 616.308L900.685 628.345L908.265 640.382H923.433L931.028 628.345L923.433 616.308H908.265ZM871.897 811.668L867.813 818.154L871.897 824.634H880.072L884.148 818.154L880.072 811.668H871.897ZM869.607 681.499L863.234 691.615L869.607 701.724H882.354L888.735 691.615L882.354 681.499H869.607ZM868.718 637.915L861.463 649.435L868.718 660.955H883.243L890.499 649.435L883.243 637.915H868.718ZM867.705 594.112L859.413 607.255L867.705 620.405H884.264L892.548 607.255L884.264 594.112H867.705ZM871.177 768.347L866.367 775.974L871.177 783.602H880.792L885.595 775.974L880.792 768.347H871.177ZM872.655 855.06L869.344 860.327L872.655 865.594H879.307L882.625 860.327L879.307 855.06H872.655ZM866.738 550.401L857.487 565.075L866.738 579.75H885.231L894.474 565.075L885.231 550.401H866.738ZM870.388 724.919L864.796 733.795L870.388 742.663H881.573L887.165 733.795L881.573 724.919H870.388ZM790.536 724.728L784.82 733.795L790.536 742.854H801.952L807.661 733.795L801.952 724.728H790.536ZM726.934 539.455L737.368 522.895L726.934 506.335H706.066L695.64 522.895L706.066 539.455H726.934ZM707.017 550.018L697.527 565.075L707.017 580.132H725.99L735.473 565.075L725.99 550.018H707.017ZM708.038 593.821L699.577 607.255L708.038 620.682H724.962L733.431 607.255L724.962 593.821H708.038ZM709.91 681.158L703.32 691.615L709.91 702.071H723.09L729.68 691.615L723.09 681.158H709.91ZM672.049 789.784L667.462 797.057L672.049 804.338H681.215L685.801 797.057L681.215 789.784H672.049ZM709.044 637.596L701.58 649.435L709.044 661.274H723.964L731.42 649.435L723.964 637.596H709.044ZM671.245 746.335L665.861 754.877L671.245 763.427H682.019L687.402 754.877L682.019 746.335H671.245ZM672.784 833.141L668.94 839.244L672.784 845.341H680.48L684.324 839.244L680.48 833.141H672.784ZM668.622 615.641L660.617 628.345L668.622 641.049H684.641L692.639 628.345L684.641 615.641H668.622ZM667.625 571.874L658.622 586.165L667.625 600.457H685.631L694.642 586.165L685.631 571.874H667.625ZM788.834 637.681L781.432 649.435L788.834 661.181H803.646L811.048 649.435L803.646 637.681H788.834ZM670.432 702.872L664.245 712.705L670.432 722.53H682.823L689.019 712.705L682.823 702.872H670.432ZM669.551 659.289L662.474 670.525L669.551 681.761H683.713L690.782 670.525L683.713 659.289H669.551ZM710.73 724.628L704.96 733.795L710.73 742.954H722.278L728.048 733.795L722.278 724.628H710.73ZM751.785 789.784L747.199 797.057L751.785 804.338H760.959L765.545 797.057L760.959 789.784H751.785ZM752.528 833.141L748.684 839.244L752.528 845.341H760.216L764.06 839.244L760.216 833.141H752.528ZM806.616 539.356L816.989 522.895L806.616 506.435H785.872L775.492 522.895L785.872 539.356H806.616ZM787.837 593.921L779.429 607.255L787.837 620.59H804.644L813.044 607.255L804.644 593.921H787.837ZM786.777 550.046L777.302 565.075L786.777 580.104H805.711L815.179 565.075L805.711 550.046H786.777ZM751.02 746.392L745.675 754.877L751.02 763.37H761.724L767.069 754.877L761.724 746.392H751.02ZM750.177 702.872L743.989 712.705L750.177 722.53H762.56L768.755 712.705L762.56 702.872H750.177ZM746.41 528.184L736.455 543.992L746.41 559.787H766.327L776.289 543.992L766.327 528.184H746.41ZM712.277 811.448L708.054 818.154L712.277 824.853H720.723L724.946 818.154L720.723 811.448H712.277ZM712.996 854.776L709.492 860.327L712.996 865.885H719.996L723.5 860.327L719.996 854.776H712.996ZM748.374 615.648L740.369 628.345L748.374 641.041H764.377L772.367 628.345L764.377 615.648H748.374ZM749.295 659.289L742.21 670.525L749.295 681.761H763.457L770.526 670.525L763.457 659.289H749.295ZM711.511 768.056L706.522 775.974L711.511 783.886H721.489L726.485 775.974L721.489 768.056H711.511ZM747.4 571.93L738.435 586.165L747.4 600.4H765.337L774.309 586.165L765.337 571.93H747.4ZM673.457 876.37L672.42 878H680.843L679.815 876.37H673.457ZM1365.52 287.426L1376.62 269.823L1365.52 252.214H1343.33L1332.24 269.823L1343.33 287.426H1365.52ZM1303.97 316.306L1293.4 333.093L1303.97 349.873H1325.13L1335.71 333.093L1325.13 316.306H1303.97ZM1166.11 434.963L1177.14 417.446L1166.11 399.936H1144.04L1133 417.446L1144.04 434.963H1166.11ZM1206.03 413.972L1217.13 396.363L1206.03 378.754H1183.84L1172.75 396.363L1183.84 413.972H1206.03ZM1245.87 392.825L1256.94 375.266L1245.87 357.713H1223.75L1212.69 375.266L1223.75 392.825H1245.87ZM1285.6 371.502L1296.51 354.176L1285.6 336.865H1263.76L1252.85 354.176L1263.76 371.502H1285.6ZM1384.04 232.45L1373.77 248.733L1384.04 265.01H1404.55L1414.81 248.733L1404.55 232.45H1384.04ZM1423.61 0L1413.06 16.7443L1423.61 33.4958H1436V0H1423.61ZM1371.85 206.554L1383.07 224.361H1405.52L1416.74 206.554L1405.52 188.746H1383.07L1371.85 206.554ZM1409.56 58.9313L1421.86 78.4474H1436V39.408H1421.86L1409.56 58.9313ZM1411.24 101.111L1422.7 119.302H1436V82.9135H1422.7L1411.24 101.111ZM1414.38 185.464L1424.27 201.159H1436V169.769H1424.27L1414.38 185.464ZM1412.82 143.284L1423.49 160.22H1436V126.341H1423.49L1412.82 143.284ZM528.471 519.769L539.786 501.813L528.471 483.849H505.831L494.516 501.813L505.831 519.769H528.471ZM625.138 462.277L613.521 480.716L625.138 499.154H648.381L659.998 480.716L648.381 462.277H625.138ZM607.944 519.351L618.997 501.813L607.944 484.267H585.839L574.786 501.813L585.839 519.351H607.944ZM545.216 461.993L533.421 480.716L545.216 499.445H568.822L580.625 480.716L568.822 461.993H545.216ZM704.991 462.44L693.466 480.716L704.991 498.991H728.017L739.534 480.716L728.017 462.44H704.991ZM687.627 519.252L698.617 501.813L687.627 484.359H665.637L654.646 501.813L665.637 519.252H687.627ZM1126.16 455.925L1137.12 438.543L1126.16 421.153H1104.25L1093.29 438.543L1104.25 455.925H1126.16ZM664.492 440.358L652.349 459.626L664.492 478.901H688.779L700.922 459.626L688.779 440.358H664.492ZM368.704 561.502L379.741 543.992L368.704 526.475H346.637L335.6 543.992L346.637 561.502H368.704ZM1086.08 476.689L1096.84 459.626L1086.08 442.569H1064.57L1053.82 459.626L1064.57 476.689H1086.08ZM488.173 540.186L499.071 522.895L488.173 505.605H466.377L455.487 522.895L466.377 540.186H488.173ZM408.878 540.887L420.217 522.895L408.878 504.903H386.2L374.868 522.895L386.2 540.887H408.878ZM1406.64 183.961L1418.98 164.374L1406.64 144.787H1381.95L1369.61 164.374L1381.95 183.961H1406.64ZM425.731 483.268L414.052 501.813L425.731 520.343H449.09L460.769 501.813L449.09 483.268H425.731ZM489.318 499.828L501.369 480.716L489.318 461.611H465.24L453.197 480.716L465.24 499.828H489.318ZM912.968 876.844L912.248 878H919.457L918.73 876.844H912.968ZM833.03 876.533L832.11 878H840.123L839.195 876.533H833.03ZM593.813 876.533L592.885 878H600.898L599.97 876.533H593.813ZM753.185 876.37L752.164 878H760.58L759.551 876.37H753.185ZM992.952 877.227L992.472 878H998.714L998.234 877.227H992.952ZM910.748 746.775L905.628 754.877L910.748 762.987H920.965L926.07 754.877L920.965 746.775H910.748ZM1432.77 731.576L1431.37 733.795L1432.77 736.006H1435.56L1436 735.297V732.285L1435.56 731.576H1432.77ZM6.69925 733.795L2.77005 727.556H-3V740.033H2.77005L6.69925 733.795ZM1366.64 247.039L1378.87 227.644L1366.64 208.248H1342.2L1329.98 227.644L1342.2 247.039H1366.64ZM514.37 877.008L513.752 878H520.558L519.932 877.008H514.37ZM1434.04 860.121L1433.91 860.327L1434.04 860.533H1434.29L1434.42 860.327L1434.29 860.121H1434.04ZM1433.25 774.528L1432.34 775.974L1433.25 777.421H1435.08L1435.99 775.974L1435.08 774.528H1433.25ZM1073.03 877.766L1072.88 878H1077.79L1077.64 877.766H1073.03ZM-0.308343 692.969L0.542468 691.615L-0.308343 690.268H-2.00997L-2.86078 691.615L-2.00997 692.969H-0.308343ZM-3 841.945V878H10.876L22.0061 860.327L10.4273 841.945H-3ZM266.05 525.143L254.169 543.992L266.05 562.835H289.81L301.691 543.992L289.81 525.143H266.05ZM744.275 440.428L732.163 459.626L744.275 478.83H768.477L780.574 459.626L768.477 440.428H744.275ZM967.884 457.832L980.043 438.543L967.884 419.239H943.558L931.399 438.543L943.558 457.832H967.884ZM1302.81 272.283L1291.08 290.913L1302.81 309.543H1326.29L1338.04 290.913L1326.29 272.283H1302.81ZM387.344 548.898L377.158 565.075L387.344 581.252H407.733L417.927 565.075L407.733 548.898H387.344ZM305.798 503.854L293.802 522.895L305.798 541.937H329.806L341.795 522.895L329.806 503.854H305.798ZM28.4568 780.795L18.2007 797.057L28.4568 813.327H48.9614L59.2175 797.057L48.9614 780.795H28.4568ZM50.5238 773.635L62.35 754.877L50.5238 736.127H26.8867L15.0759 754.877L26.8867 773.635H50.5238ZM31.0092 827.023L23.3133 839.244L31.0092 851.459H46.4089L54.1049 839.244L46.4089 827.023H31.0092ZM186.275 567.252L174.348 586.165L186.275 605.079H210.113L222.032 586.165L210.113 567.252H186.275ZM226.185 546.225L214.305 565.075L226.185 583.925H249.938L261.811 565.075L249.938 546.225H226.185ZM90.4964 710.528L102.423 691.615L90.4964 672.701H66.6582L54.7314 691.615L66.6582 710.528H90.4964ZM170.419 626.459L182.523 607.255L170.419 588.051H146.217L134.12 607.255L146.217 626.459H170.419ZM1286.72 331.108L1298.77 311.996L1286.72 292.898H1262.64L1250.6 311.996L1262.64 331.108H1286.72ZM268.494 613.373L259.058 628.345L268.494 643.31H287.366L296.803 628.345L287.366 613.373H268.494ZM235.637 814.305L233.216 818.154L235.637 821.997H240.487L242.908 818.154L240.487 814.305H235.637ZM233.255 768.347L228.444 775.974L233.255 783.602H242.861L247.68 775.974L242.861 768.347H233.255ZM277.072 837.876L276.213 839.244L277.072 840.598H278.789L279.647 839.244L278.789 837.876H277.072ZM272.524 746.293L267.109 754.877L272.524 763.469H283.337L288.751 754.877L283.337 746.293H272.524ZM271.069 701.809L264.201 712.705L271.069 723.593H284.791L291.659 712.705L284.791 701.809H271.069ZM269.708 657.474L261.486 670.525L269.708 683.569H286.152L294.374 670.525L286.152 657.474H269.708ZM191.936 744.953L185.679 754.877L191.936 764.802H204.443L210.693 754.877L204.443 744.953H191.936ZM231.53 723.43L225.002 733.795L231.53 744.152H244.586L251.122 733.795L244.586 723.43H231.53ZM197.196 837.656L196.198 839.244L197.196 840.818H199.184L200.181 839.244L199.184 837.656H197.196ZM230.014 678.854L221.978 691.615L230.014 704.375H246.102L254.138 691.615L246.102 678.854H230.014ZM228.753 634.661L219.448 649.435L228.753 664.201H247.363L256.668 649.435L247.363 634.661H228.753ZM194.025 790.45L189.863 797.057L194.025 803.664H202.355L206.516 797.057L202.355 790.45H194.025ZM274.364 791.4L270.791 797.057L274.364 802.721H281.496L285.069 797.057L281.496 791.4H274.364ZM351.239 702.496L344.796 712.705L351.239 722.913H364.102L370.537 712.705L364.102 702.496H351.239ZM350.094 658.502L342.514 670.525L350.094 682.548H365.246L372.834 670.525L365.246 658.502H350.094ZM352.446 746.583L347.209 754.877L352.446 763.179H362.903L368.132 754.877L362.903 746.583H352.446ZM353.768 790.861L349.862 797.057L353.768 803.26H361.58L365.479 797.057L361.58 790.861H353.768ZM348.903 614.436L340.14 628.345L348.903 642.247H366.438L375.193 628.345L366.438 614.436H348.903ZM355.71 836.132L353.753 839.244L355.71 842.349H359.631L361.596 839.244L359.631 836.132H355.71ZM190.266 700.136L182.345 712.705L190.266 725.273H206.114L214.034 712.705L206.114 700.136H190.266ZM309.371 636.065L300.941 649.435L309.371 662.805H326.233L334.656 649.435L326.233 636.065H309.371ZM347.774 570.456L337.874 586.165L347.774 601.874H367.567L377.467 586.165L367.567 570.456H347.774ZM308.126 591.907L298.466 607.255L308.126 622.596H327.47L337.139 607.255L327.47 591.907H308.126ZM310.586 680.159L303.369 691.615L310.586 703.064H325.019L332.235 691.615L325.019 680.159H310.586ZM313.293 768.822L308.784 775.974L313.293 783.127H322.311L326.813 775.974L322.311 768.822H313.293ZM311.792 724.253L305.775 733.795L311.792 743.336H323.812L329.822 733.795L323.812 724.253H311.792ZM315.141 813.929L312.488 818.154L315.141 822.372H320.463L323.116 818.154L320.463 813.929H315.141ZM248.639 624.042L259.22 607.255L248.639 590.468H227.477L216.904 607.255L227.477 624.042H248.639ZM1023.78 420.005L1012.1 438.543L1023.78 457.074H1047.14L1058.82 438.543L1047.14 420.005H1023.78ZM1063.41 398.532L1051.49 417.446L1063.41 436.366H1087.25L1099.17 417.446L1087.25 398.532H1063.41ZM767.348 519.23L778.323 501.813L767.348 484.388H745.397L734.421 501.813L745.397 519.23H767.348ZM328.6 582.209L339.39 565.075L328.6 547.948H307.005L296.207 565.075L307.005 582.209H328.6ZM1006.99 477.717L1018.38 459.626L1006.99 441.541H984.196L972.795 459.626L984.196 477.717H1006.99ZM288.588 603.073L299.239 586.165L288.588 569.251H267.272L256.621 586.165L267.272 603.073H288.588ZM848.097 478.638L860.07 459.626L848.097 440.62H824.128L812.147 459.626L824.128 478.638H848.097ZM208.821 645.217L219.456 628.345L208.821 611.473H187.558L176.931 628.345L187.558 645.217H208.821ZM784.781 462.532L773.326 480.716L784.781 498.899H807.699L819.154 480.716L807.699 462.532H784.781ZM904.034 440.875L892.216 459.626L904.034 478.383H927.671L939.49 459.626L927.671 440.875H904.034ZM966.716 498.162L977.707 480.716L966.716 463.276H944.726L933.735 480.716L944.726 498.162H966.716ZM846.968 519.032L857.82 501.813L846.968 484.579H825.257L814.405 501.813L825.257 519.032H846.968ZM887.32 498.708L898.651 480.716L887.32 462.724H864.649L853.31 480.716L864.649 498.708H887.32ZM110.227 741.834L102.006 754.877L110.227 767.935H126.671L134.893 754.877L126.671 741.834H110.227ZM169.111 666.569L179.909 649.435L169.111 632.301H147.524L136.726 649.435L147.524 666.569H169.111ZM115.727 834.927L113.012 839.244L115.727 843.554H121.164L123.879 839.244L121.164 834.927H115.727ZM112.316 787.324L106.182 797.057L112.316 806.791H124.583L130.717 797.057L124.583 787.324H112.316ZM152.242 766.333L146.17 775.974L152.242 785.608H164.393L170.465 775.974L164.393 766.333H152.242ZM154.833 812.625L151.353 818.154L154.833 823.677H161.802L165.283 818.154L161.802 812.625H154.833ZM150.37 721.183L142.427 733.795L150.37 746.399H166.265L174.208 733.795L166.265 721.183H150.37ZM148.854 676.586L139.379 691.615L148.854 706.636H167.789L177.256 691.615L167.789 676.586H148.854ZM68.0195 717.043L57.4695 733.795L68.0195 750.539H89.1351L99.6852 733.795L89.1351 717.043H68.0195ZM107.188 652.66L95.9339 670.525L107.188 688.389H129.703L140.965 670.525L129.703 652.66H107.188ZM188.881 655.758L179.576 670.525L188.881 685.291H207.498L216.803 670.525L207.498 655.758H188.881ZM69.7521 761.966L60.9268 775.974L69.7521 789.975H87.4025L96.2355 775.974L87.4025 761.966H69.7521ZM108.657 697.158L98.8576 712.705L108.657 728.244H128.249L138.041 712.705L128.249 697.158H108.657ZM72.1498 807.939L65.7069 818.154L72.1498 828.355H85.0125L91.4478 818.154L85.0125 807.939H72.1498ZM76.8293 857.541L75.0658 860.327L76.8293 863.113H80.3331L82.0888 860.327L80.3331 857.541H76.8293ZM1433.67 817.36L1433.17 818.154L1433.67 818.941H1434.66L1435.16 818.154L1434.66 817.36H1433.67ZM1241.98 302.277L1249.14 290.913L1241.98 279.55H1227.65L1220.49 290.913L1227.65 302.277H1241.98ZM1276.81 231.011L1278.93 227.644L1276.81 224.276H1272.56L1270.44 227.644L1272.56 231.011H1276.81ZM1318.91 213.451L1323.24 206.554L1318.91 199.656H1310.21L1305.86 206.554L1310.21 213.451H1318.91ZM1235.92 250.477L1237.01 248.733L1235.92 246.982H1233.72L1232.62 248.733L1233.72 250.477H1235.92ZM1283.27 283.441L1291.85 269.823L1283.27 256.198H1266.09L1257.52 269.823L1266.09 283.441H1283.27ZM1247.1 352.581L1259.38 333.093L1247.1 313.605H1222.53L1210.25 333.093L1222.53 352.581H1247.1ZM1314.63 164.48L1314.69 164.374L1314.63 164.267H1314.48L1314.42 164.374L1314.48 164.48H1314.63ZM1402.83 135.734L1411.36 122.194L1402.83 108.661H1385.76L1377.23 122.194L1385.76 135.734H1402.83ZM1325.83 266.633L1337.11 248.733L1325.83 230.841H1303.27L1292 248.733L1303.27 266.633H1325.83ZM1395.41 39.6136L1396.53 37.8343L1395.41 36.062H1393.18L1392.06 37.8343L1393.18 39.6136H1395.41ZM1362.78 198.713L1371.12 185.464L1362.78 172.214H1346.07L1337.72 185.464L1346.07 198.713H1362.78ZM1357.37 147.948L1360.3 143.284L1357.37 138.612H1351.48L1348.54 143.284L1351.48 147.948H1357.37ZM1398.4 86.5218L1402.5 80.0141L1398.4 73.5063H1390.2L1386.09 80.0141L1390.2 86.5218H1398.4ZM1000.7 383.376L1005.81 375.266L1000.7 367.163H990.484L985.372 375.266L990.484 383.376H1000.7ZM1077.29 336.205L1079.25 333.093L1077.29 329.974H1073.38L1071.41 333.093L1073.38 336.205H1077.29ZM1122.84 366.305L1130.48 354.176L1122.84 342.054H1107.57L1099.92 354.176L1107.57 366.305H1122.84ZM1116.43 313.939L1117.64 311.996L1116.43 310.061H1113.98L1112.76 311.996L1113.98 313.939H1116.43ZM1046.86 414.454L1058.27 396.363L1046.86 378.257H1024.06L1012.66 396.363L1024.06 414.454H1046.86ZM1084.51 389.848L1093.7 375.266L1084.51 360.691H1066.14L1056.96 375.266L1066.14 389.848H1084.51ZM1038.73 359.365L1042 354.176L1038.73 349.001H1032.2L1028.93 354.176L1032.2 359.365H1038.73ZM1167.35 394.761L1179.64 375.266L1167.35 355.785H1142.8L1130.5 375.266L1142.8 394.761H1167.35ZM1201.68 322.694L1208.42 311.996L1201.68 301.313H1188.21L1181.47 311.996L1188.21 322.694H1201.68ZM1195.68 270.979L1196.41 269.823L1195.68 268.661H1194.21L1193.48 269.823L1194.21 270.979H1195.68ZM1161.81 343.776L1168.54 333.093L1161.81 322.403H1148.33L1141.6 333.093L1148.33 343.776H1161.81ZM1207.29 373.77L1219.62 354.176L1207.29 334.596H1182.61L1170.25 354.176L1182.61 373.77H1207.29ZM1127.3 415.56L1139.4 396.363L1127.3 377.159H1103.1L1091 396.363L1103.1 415.56H1127.3ZM1429.33 649.435L1431.75 653.27H1436V645.6H1431.75L1429.33 649.435ZM1155.83 292.111L1156.59 290.913L1155.83 289.715H1154.32L1153.56 290.913L1154.32 292.111H1155.83ZM1388.22 449.999L1382.15 459.626L1388.22 469.267H1400.37L1406.44 459.626L1400.37 449.999H1388.22ZM1352.13 730.144L1349.83 733.795L1352.13 737.438H1356.72L1359.02 733.795L1356.72 730.144H1352.13ZM1391.03 623.17L1387.77 628.345L1391.03 633.52H1397.55L1400.82 628.345L1397.55 623.17H1391.03ZM1387.5 406.663L1380.7 417.446L1387.5 428.228H1401.09L1407.88 417.446L1401.09 406.663H1387.5ZM1390.37 579.941L1386.45 586.165L1390.37 592.389H1398.22L1402.15 586.165L1398.22 579.941H1390.37ZM1389.73 536.74L1385.16 543.992L1389.73 551.23H1398.87L1403.43 543.992L1398.87 536.74H1389.73ZM1353.7 859.172L1352.96 860.327L1353.7 861.49H1355.15L1355.88 860.327L1355.15 859.172H1353.7ZM1352.71 773.245L1350.98 775.974L1352.71 778.704H1356.14L1357.86 775.974L1356.14 773.245H1352.71ZM1391.63 666.293L1388.97 670.525L1391.63 674.757H1396.96L1399.62 670.525L1396.96 666.293H1391.63ZM1386.71 363.243L1379.13 375.266L1386.71 387.296H1401.87L1409.45 375.266L1401.87 363.243H1386.71ZM1385.83 319.659L1377.36 333.093L1385.83 346.52H1402.76L1411.23 333.093L1402.76 319.659H1385.83ZM1384.94 276.076L1375.59 290.913L1384.94 305.751H1403.65L1412.99 290.913L1403.65 276.076H1384.94ZM1430.4 691.615L1432.29 694.599H1436V688.623H1432.29L1430.4 691.615ZM1353.21 816.219L1351.99 818.154L1353.21 820.082H1355.64L1356.86 818.154L1355.64 816.219H1353.21ZM1392.18 709.344L1390.06 712.705L1392.18 716.065H1396.41L1398.53 712.705L1396.41 709.344H1392.18ZM1421.66 396.363L1427.91 406.28H1436V386.438H1427.91L1421.66 396.363ZM1423.11 438.543L1428.63 447.312H1436V429.759H1428.63L1423.11 438.543ZM1425.72 522.895L1429.94 529.602H1436V516.196H1429.94L1425.72 522.895ZM1428.23 607.255L1431.2 611.955H1436V602.548H1431.2L1428.23 607.255ZM1427.04 565.075L1430.61 570.725H1436V559.425H1430.61L1427.04 565.075ZM1424.43 480.716L1429.29 488.443H1436V472.996H1429.29L1424.43 480.716ZM1393.68 838.266L1393.06 839.244L1393.68 840.215H1394.91L1395.53 839.244L1394.91 838.266H1393.68ZM1393.2 795.313L1392.09 797.057L1393.2 798.808H1395.39L1396.5 797.057L1395.39 795.313H1393.2ZM1392.72 752.382L1391.15 754.877L1392.72 757.38H1395.86L1397.44 754.877L1395.86 752.382H1392.72ZM1418.89 311.996L1426.53 324.125H1436V299.881H1426.53L1418.89 311.996ZM1420.24 354.176L1427.21 365.221H1436V343.138H1427.21L1420.24 354.176ZM1417.35 269.823L1425.76 283.165H1436V256.489H1425.76L1417.35 269.823ZM1415.91 227.644L1425.04 242.126H1436V213.161H1425.04L1415.91 227.644ZM1389 493.412L1383.71 501.813L1389 510.199H1399.58L1404.88 501.813L1399.58 493.412H1389ZM319.31 440.939L320.826 438.543L319.31 436.14H316.286L314.778 438.543L316.286 440.939H319.31ZM326.078 493.859L334.37 480.716L326.078 467.572H309.511L301.235 480.716L309.511 493.859H326.078ZM364.442 470.38L371.218 459.626L364.442 448.871H350.891L344.115 459.626L350.891 470.38H364.442ZM240.595 484.742L243.132 480.716L240.595 476.689H235.521L232.984 480.716L235.521 484.742H240.595ZM280.111 463.092L282.3 459.626L280.111 456.159H275.749L273.56 459.626L275.749 463.092H280.111ZM287.297 516.678L296.663 501.813L287.297 486.94H268.563L259.197 501.813L268.563 516.678H287.297ZM369.957 521.3L382.232 501.813L369.957 482.318H345.392L333.101 501.813L345.392 521.3H369.957ZM440.729 422.713L444.055 417.446L440.729 412.179H434.085L430.774 417.446L434.085 422.713H440.729ZM983.129 437.224H1008.06L1020.52 417.446L1008.06 397.674H983.129L970.668 417.446L983.129 437.224ZM402.767 446.837L407.996 438.543L402.767 430.241H392.31L387.081 438.543L392.31 446.837H402.767ZM358.425 418.651L359.183 417.446L358.425 416.255H356.916L356.158 417.446L356.916 418.651H358.425ZM247.92 538.534L257.774 522.895L247.92 507.257H228.204L218.342 522.895L228.204 538.534H247.92ZM409.999 500.494L422.467 480.716L409.999 460.944H385.078L372.61 480.716L385.078 500.494H409.999ZM14.3179 775.974L6.57549 763.689H-3V788.26H6.57549L14.3179 775.974ZM200.607 505.648L203.028 501.813L200.607 497.97H195.773L193.352 501.813L195.773 505.648H200.607ZM88.4699 665.13L98.3625 649.435L88.4699 633.74H68.6924L58.7998 649.435L68.6924 665.13H88.4699ZM39.587 629.734L40.461 628.345L39.587 626.956H37.8312L36.9572 628.345L37.8312 629.734H39.587ZM21.9906 818.154L10.4196 799.779H-3V836.522H10.4196L21.9906 818.154ZM485.745 451.969L494.206 438.543L485.745 425.109H468.813L460.352 438.543L468.813 451.969H485.745ZM43.6399 678.344L48.5669 670.525L43.6399 662.706H33.7782L28.8513 670.525L33.7782 678.344H43.6399ZM49.3171 729.548L59.9368 712.705L49.3171 695.861H28.0933L17.4813 712.705L28.0933 729.548H49.3171ZM160.193 525.873L162.065 522.895L160.193 519.918H156.442L154.57 522.895L156.442 525.873H160.193ZM207.56 558.858L216.935 543.992L207.56 529.112H188.819L179.445 543.992L188.819 558.858H207.56ZM166.42 577.935L174.526 565.075L166.42 552.223H150.216L142.11 565.075L150.216 577.935H166.42ZM130.91 648.123L143.37 628.345L130.91 608.567H105.989L93.5206 628.345L105.989 648.123H130.91ZM124.583 595.898L130.717 586.165L124.583 576.432H112.316L106.182 586.165L112.316 595.898H124.583ZM82.2049 613.004L85.8169 607.255L82.2049 601.513H74.9575L71.3299 607.255L74.9575 613.004H82.2049ZM119.385 545.474L120.329 543.992L119.385 542.504H117.514L116.578 543.992L117.514 545.474H119.385ZM448.626 477.426L459.841 459.626L448.626 441.832H426.196L414.973 459.626L426.196 477.426H448.626ZM764.493 430.334L772.607 417.446L764.493 404.565H748.258L740.129 417.446L748.258 430.334H764.493ZM837.988 378.243L839.868 375.266L837.988 372.296H834.237L832.365 375.266L834.237 378.243H837.988ZM881.55 405.189L887.119 396.363L881.55 387.53H870.412L864.851 396.363L870.412 405.189H881.55ZM757.795 377.52L759.211 375.266L757.795 373.019H754.957L753.533 375.266L754.957 377.52H757.795ZM783.722 458.413H808.767L821.289 438.543L808.767 418.665H783.722L771.192 438.543L783.722 458.413ZM800.777 403.551L805.309 396.363L800.777 389.168H791.712L787.179 396.363L791.712 403.551H800.777ZM845.058 431.645L853.999 417.446L845.058 403.253H827.167L818.218 417.446L827.167 431.645H845.058ZM956.808 355.913L957.906 354.176L956.808 352.446H954.634L953.536 354.176L954.634 355.913H956.808ZM963.313 408.393L970.893 396.363L963.313 384.326H948.137L940.549 396.363L948.137 408.393H963.313ZM876.05 354.289L876.12 354.176L876.05 354.077H875.919L875.849 354.176L875.919 354.289H876.05ZM918.807 379.966L921.77 375.266L918.807 370.573H912.89L909.936 375.266L912.89 379.966H918.807ZM863.574 458.222H888.387L900.786 438.543L888.387 418.856H863.574L851.176 438.543L863.574 458.222ZM926.704 434.672L937.564 417.446L926.704 400.226H904.993L894.149 417.446L904.993 434.672H926.704ZM517.225 375.379L517.286 375.266L517.225 375.16H517.078L517.016 375.266L517.078 375.379H517.225ZM560.044 401.148L563.06 396.363L560.044 391.571H554.003L550.979 396.363L554.003 401.148H560.044ZM720.723 403.062L724.946 396.363L720.723 389.657H712.277L708.054 396.363L712.277 403.062H720.723ZM478.853 398.858L480.423 396.363L478.853 393.868H475.705L474.127 396.363L475.705 398.858H478.853ZM522.739 426.321L528.332 417.446L522.739 408.577H511.563L505.971 417.446L511.563 426.321H522.739ZM604.046 428.809L611.208 417.446L604.046 406.096H589.737L582.575 417.446L589.737 428.809H604.046ZM504.749 479.312H529.554L541.952 459.626L529.554 439.946H504.749L492.342 459.626L504.749 479.312ZM567.941 455.861L578.846 438.543L567.941 421.217H546.106L535.192 438.543L546.106 455.861H567.941ZM677.958 377.386L679.304 375.266L677.958 373.153H675.298L673.959 375.266L675.298 377.386H677.958ZM912.295 833.594L908.729 839.244L912.295 844.887H919.411L922.976 839.244L919.411 833.594H912.295ZM704.039 458.314H728.961L741.429 438.543L728.961 418.764H704.039L691.579 438.543L704.039 458.314ZM597.75 376.634L598.609 375.266L597.75 373.912H596.033L595.174 375.266L596.033 376.634H597.75ZM584.609 440.138L572.326 459.626L584.609 479.12H609.174L621.457 459.626L609.174 440.138H584.609ZM649 457.967L661.244 438.543L649 419.112H624.52L612.276 438.543L624.52 457.967H649ZM640.685 402.58L644.606 396.363L640.685 390.132H632.834L628.913 396.363L632.834 402.58H640.685ZM684.556 430.022L692.476 417.446L684.556 404.884H668.715L660.787 417.446L668.715 430.022H684.556ZM1072.46 834.665L1069.57 839.244L1072.46 843.81H1078.21L1081.1 839.244L1078.21 834.665H1072.46ZM1071.78 791.407L1068.21 797.057L1071.78 802.707H1078.89L1082.46 797.057L1078.89 791.407H1071.78ZM1071.01 748.015L1066.68 754.877L1071.01 761.747H1079.66L1083.98 754.877L1079.66 748.015H1071.01ZM1105.31 465.027L1095.43 480.716L1105.31 496.411H1125.1L1134.98 480.716L1125.1 465.027H1105.31ZM1108.34 596.366L1101.48 607.255L1108.34 618.144H1122.07L1128.93 607.255L1122.07 596.366H1108.34ZM1106.32 508.795L1097.43 522.895L1106.32 537.003H1124.09L1132.97 522.895L1124.09 508.795H1106.32ZM1107.35 552.598L1099.48 565.075L1107.35 577.552H1123.06L1130.93 565.075L1123.06 552.598H1107.35ZM1065.6 486.373L1055.88 501.813L1065.6 517.245H1085.06L1094.79 501.813L1085.06 486.373H1065.6ZM1070.21 704.566L1065.08 712.705L1070.21 720.836H1080.46L1085.59 712.705L1080.46 704.566H1070.21ZM1066.68 530.254L1058.03 543.992L1066.68 557.717H1083.98L1092.64 543.992L1083.98 530.254H1066.68ZM1067.65 573.979L1059.97 586.165L1067.65 598.358H1083.01L1090.69 586.165L1083.01 573.979H1067.65ZM1069.42 661.132L1063.5 670.525L1069.42 679.911H1081.25L1087.17 670.525L1081.25 661.132H1069.42ZM1068.6 617.662L1061.86 628.345L1068.6 639.035H1082.07L1088.81 628.345L1082.07 617.662H1068.6ZM1147.13 531.374L1139.18 543.992L1147.13 556.597H1163.01L1170.96 543.992L1163.01 531.374H1147.13ZM1032.03 812.689L1028.58 818.154L1032.03 823.613H1038.9L1042.35 818.154L1038.9 812.689H1032.03ZM1148.09 575.099L1141.12 586.165L1148.09 597.238H1162.05L1169.03 586.165L1162.05 575.099H1148.09ZM1146.12 487.599L1137.16 501.813L1146.12 516.019H1164.03L1172.98 501.813L1164.03 487.599H1146.12ZM1148.94 618.612L1142.81 628.345L1148.94 638.078H1161.2L1167.34 628.345L1161.2 618.612H1148.94ZM1150.55 705.523L1146.02 712.705L1150.55 719.886H1159.59L1164.13 712.705L1159.59 705.523H1150.55ZM1149.76 662.096L1144.44 670.525L1149.76 678.961H1160.39L1165.71 670.525L1160.39 662.096H1149.76ZM1111.55 770.154L1107.87 775.974L1111.55 781.787H1118.86L1122.53 775.974L1118.86 770.154H1111.55ZM1109.97 683.313L1104.75 691.615L1109.97 699.916H1120.43L1125.66 691.615L1120.43 683.313H1109.97ZM1110.8 726.805L1106.4 733.795L1110.8 740.784H1119.61L1124.01 733.795L1119.61 726.805H1110.8ZM1112.84 856.577L1110.47 860.327L1112.84 864.084H1117.57L1119.93 860.327L1117.57 856.577H1112.84ZM1109.19 639.886L1103.16 649.435L1109.19 658.984H1121.22L1127.24 649.435L1121.22 639.886H1109.19ZM1112.24 813.447L1109.27 818.154L1112.24 822.854H1118.17L1121.14 818.154L1118.17 813.447H1112.24ZM1145.06 443.739L1135.05 459.626L1145.06 475.519H1165.09L1175.09 459.626L1165.09 443.739H1145.06ZM1046 497.431L1056.54 480.716L1046 464H1024.93L1014.39 480.716L1024.93 497.431H1046ZM951.192 768.793L946.675 775.974L951.192 783.156H960.25L964.767 775.974L960.25 768.793H951.192ZM952.639 855.443L949.56 860.327L952.639 865.218H958.803L961.882 860.327L958.803 855.443H952.639ZM951.935 812.143L948.153 818.154L951.935 824.159H959.507L963.289 818.154L959.507 812.143H951.935ZM986.346 529.311L977.103 543.992L986.346 558.66H1004.84L1014.08 543.992L1004.84 529.311H986.346ZM950.411 725.359L945.097 733.795L950.411 742.223H961.031L966.352 733.795L961.031 725.359H950.411ZM985.318 485.501L975.038 501.813L985.318 518.117H1005.88L1016.15 501.813L1005.88 485.501H985.318ZM949.584 681.881L943.458 691.615L949.584 701.341H961.858L967.992 691.615L961.858 681.881H949.584ZM945.747 507.065L935.769 522.895L945.747 538.725H965.695L975.68 522.895L965.695 507.065H945.747ZM911.56 790.252L907.267 797.057L911.56 803.87H920.138L924.438 797.057L920.138 790.252H911.56ZM947.719 594.566L939.722 607.255L947.719 619.952H963.722L971.728 607.255L963.722 594.566H947.719ZM948.71 638.305L941.702 649.435L948.71 660.565H962.732L969.748 649.435L962.732 638.305H948.71ZM987.344 573.079L979.099 586.165L987.344 599.252H1003.84L1012.09 586.165L1003.84 573.079H987.344ZM946.768 550.869L937.819 565.075L946.768 579.282H964.674L973.631 565.075L964.674 550.869H946.768ZM1028.91 639.035L1022.35 649.435L1028.91 659.835H1042.02L1048.57 649.435L1042.02 639.035H1028.91ZM988.365 616.882L981.141 628.345L988.365 639.808H1002.82L1010.05 628.345L1002.82 616.882H988.365ZM1027 551.641L1018.53 565.075L1027 578.502H1043.93L1052.39 565.075L1043.93 551.641H1027ZM1032.74 856.01L1030.01 860.327L1032.74 864.658H1038.18L1040.91 860.327L1038.18 856.01H1032.74ZM1031.3 769.367L1027.14 775.974L1031.3 782.581H1039.62L1043.78 775.974L1039.62 769.367H1031.3ZM1029.73 682.512L1023.99 691.615L1029.73 700.717H1041.19L1046.94 691.615L1041.19 682.512H1029.73ZM1030.51 725.933L1025.55 733.795L1030.51 741.656H1040.42L1045.37 733.795L1040.42 725.933H1030.51ZM1028.01 595.423L1020.55 607.255L1028.01 619.094H1042.92L1050.38 607.255L1042.92 595.423H1028.01ZM990.848 747.349L986.099 754.877L990.848 762.42H1000.34L1005.09 754.877L1000.34 747.349H990.848ZM990.02 703.872L984.459 712.705L990.02 721.538H1001.16L1006.73 712.705L1001.16 703.872H990.02ZM989.224 660.416L982.843 670.525L989.224 680.641H1001.96L1008.34 670.525L1001.96 660.416H989.224ZM1025.93 507.774L1016.4 522.895L1025.93 538.023H1044.99L1054.52 522.895L1044.99 507.774H1025.93ZM1151.33 748.944L1147.58 754.877L1151.33 760.818H1158.81L1162.56 754.877L1158.81 748.944H1151.33ZM991.567 790.67L987.545 797.057L991.567 803.444H999.619L1003.64 797.057L999.619 790.67H991.567ZM992.333 834.062L989.069 839.244L992.333 844.412H998.853L1002.12 839.244L998.853 834.062H992.333ZM1310.93 664.776L1307.31 670.525L1310.93 676.274H1318.18L1321.8 670.525L1318.18 664.776H1310.93ZM1269.43 598.925L1264.19 607.255L1269.43 615.578H1279.93L1285.18 607.255L1279.93 598.925H1269.43ZM1306.99 447.631L1299.44 459.626L1306.99 471.62H1322.11L1329.67 459.626L1322.11 447.631H1306.99ZM1307.84 491.143L1301.12 501.813L1307.84 512.467H1321.27L1327.99 501.813L1321.27 491.143H1307.84ZM1309.45 578.062L1304.33 586.165L1309.45 594.275H1319.66L1324.77 586.165L1319.66 578.062H1309.45ZM1308.66 534.642L1302.77 543.992L1308.66 553.336H1320.44L1326.34 543.992L1320.44 534.642H1308.66ZM1305.02 360.145L1295.5 375.266L1305.02 390.394H1324.08L1333.62 375.266L1324.08 360.145H1305.02ZM1272.81 815.17L1270.92 818.154L1272.81 821.132H1276.57L1278.45 818.154L1276.57 815.17H1272.81ZM1310.21 621.454L1305.86 628.345L1310.21 635.243H1318.91L1323.24 628.345L1318.91 621.454H1310.21ZM1152.65 835.395L1150.23 839.244L1152.65 843.086H1157.5L1159.93 839.244L1157.5 835.395H1152.65ZM1270.94 685.674L1267.2 691.615L1270.94 697.548H1278.43L1282.17 691.615L1278.43 685.674H1270.94ZM1273.35 858.214L1272.02 860.327L1273.35 862.447H1276.02L1277.35 860.327L1276.02 858.214H1273.35ZM1272.26 772.125L1269.84 775.974L1272.26 779.824H1277.11L1279.54 775.974L1277.11 772.125H1272.26ZM1271.61 728.903L1268.52 733.795L1271.61 738.679H1277.76L1280.84 733.795L1277.76 728.903H1271.61ZM1306.03 403.92L1297.5 417.446L1306.03 430.972H1323.08L1331.6 417.446L1323.08 403.92H1306.03ZM1347.99 470.507L1341.56 480.716L1347.99 490.924H1360.86L1367.29 480.716L1360.86 470.507H1347.99ZM1348.78 513.935L1343.12 522.895L1348.78 531.87H1360.08L1365.72 522.895L1360.08 513.935H1348.78ZM1351.58 687.106L1348.75 691.615L1351.58 696.116H1357.26L1360.1 691.615L1357.26 687.106H1351.58ZM1349.55 557.348L1344.68 565.075L1349.55 572.795H1359.3L1364.16 565.075L1359.3 557.348H1349.55ZM1350.97 643.962L1347.53 649.435L1350.97 654.908H1357.87L1361.32 649.435L1357.87 643.962H1350.97ZM1347.21 427.087L1339.99 438.543L1347.21 449.999H1361.64L1368.86 438.543L1361.64 427.087H1347.21ZM1350.26 600.648L1346.09 607.255L1350.26 613.862H1358.59L1362.75 607.255L1358.59 600.648H1350.26ZM1313.26 837.181L1311.96 839.244L1313.26 841.3H1315.86L1317.15 839.244L1315.86 837.181H1313.26ZM1312.19 751.134L1309.82 754.877L1312.19 758.635H1316.92L1319.28 754.877L1316.92 751.134H1312.19ZM1311.59 707.997L1308.63 712.705L1311.59 717.405H1317.52L1320.49 712.705L1317.52 707.997H1311.59ZM1346.25 383.376L1338.06 396.363L1346.25 409.343H1362.61L1370.79 396.363L1362.61 383.376H1346.25ZM1345.36 339.792L1336.29 354.176L1345.36 368.567H1363.49L1372.55 354.176L1363.49 339.792H1345.36ZM1344.4 296.088L1334.36 311.996L1344.4 327.918H1364.45L1374.49 311.996L1364.45 296.088H1344.4ZM1312.73 794.172L1310.92 797.057L1312.73 799.95H1316.38L1318.2 797.057L1316.38 794.172H1312.73ZM1270.22 642.353L1265.75 649.435L1270.22 656.517H1279.15L1283.62 649.435L1279.15 642.353H1270.22ZM1189.63 640.999L1184.31 649.435L1189.63 657.871H1200.26L1205.57 649.435L1200.26 640.999H1189.63ZM1190.42 684.434L1185.9 691.615L1190.42 698.789H1199.47L1203.99 691.615L1199.47 684.434H1190.42ZM1191.14 727.755L1187.34 733.795L1191.14 739.82H1198.75L1202.55 733.795L1198.75 727.755H1191.14ZM1192.47 814.22L1189.99 818.154L1192.47 822.082H1197.42L1199.9 818.154L1197.42 814.22H1192.47ZM1191.82 771.019L1188.71 775.974L1191.82 780.923H1198.06L1201.18 775.974L1198.06 771.019H1191.82ZM1193.01 857.257L1191.07 860.327L1193.01 863.404H1196.88L1198.81 860.327L1196.88 857.257H1193.01ZM1188.81 597.522L1182.67 607.255L1188.81 616.988H1201.08L1207.21 607.255L1201.08 597.522H1188.81ZM1152 792.173L1148.92 797.057L1152 801.949H1158.15L1161.23 797.057L1158.15 792.173H1152ZM1184.93 422.656L1174.92 438.543L1184.93 454.429H1204.96L1214.97 438.543L1204.96 422.656H1184.93ZM1224.87 401.658L1214.91 417.446L1224.87 433.247H1244.77L1254.72 417.446L1244.77 401.658H1224.87ZM1187.93 553.938L1180.9 565.075L1187.93 576.212H1201.97L1208.98 565.075L1201.97 553.938H1187.93ZM1185.93 466.424L1176.94 480.716L1185.93 495.007H1203.95L1212.96 480.716L1203.95 466.424H1185.93ZM1186.94 510.199L1178.94 522.895L1186.94 535.592H1202.95L1210.94 522.895L1202.95 510.199H1186.94ZM1231.7 749.929L1228.57 754.877L1231.7 759.84H1237.94L1241.06 754.877L1237.94 749.929H1231.7ZM1264.9 380.824L1255.1 396.363L1264.9 411.895H1284.47L1294.26 396.363L1284.47 380.824H1264.9ZM1232.33 793.123L1229.85 797.057L1232.33 801.006H1237.3L1239.78 797.057L1237.3 793.123H1232.33ZM1266.86 468.31L1259.05 480.716L1266.86 493.128H1282.5L1290.33 480.716L1282.5 468.31H1266.86ZM1225.87 445.433L1216.92 459.626L1225.87 473.825H1243.76L1252.7 459.626L1243.76 445.433H1225.87ZM1232.88 836.168L1230.95 839.244L1232.88 842.307H1236.75L1238.69 839.244L1236.75 836.168H1232.88ZM1265.92 424.627L1257.16 438.543L1265.92 452.444H1283.45L1292.21 438.543L1283.45 424.627H1265.92ZM1267.82 512.007L1260.96 522.895L1267.82 533.791H1281.55L1288.41 522.895L1281.55 512.007H1267.82ZM1227.84 532.919L1220.86 543.992L1227.84 555.058H1241.79L1248.77 543.992L1241.79 532.919H1227.84ZM1226.86 489.194L1218.92 501.813L1226.86 514.417H1242.76L1250.7 501.813L1242.76 489.194H1226.86ZM1228.68 576.432L1222.55 586.165L1228.68 595.898H1240.95L1247.08 586.165L1240.95 576.432H1228.68ZM1268.63 555.462L1262.58 565.075L1268.63 574.688H1280.74L1286.79 565.075L1280.74 555.462H1268.63ZM1229.5 619.909L1224.19 628.345L1229.5 636.781H1240.14L1245.44 628.345L1240.14 619.909H1229.5ZM1231.02 706.672L1227.21 712.705L1231.02 718.737H1238.62L1242.42 712.705L1238.62 706.672H1231.02ZM1239.34 663.344L1243.86 670.525L1239.34 677.706H1230.29L1225.76 670.525L1230.29 663.344H1239.34Z" fill="#ECF5FD"/>
</svg>
