<svg width="1439" height="937" viewBox="0 0 1439 937" fill="none" xmlns="http://www.w3.org/2000/svg">
<path d="M556.701 912.518L553.383 918.139L556.701 923.76H563.337L566.663 918.139L563.337 912.518H556.701ZM555.092 819.774L550.165 828.118L555.092 836.463H564.954L569.873 828.118L564.954 819.774H555.092ZM516.551 889.535L512.946 895.64L516.551 901.738H523.759L527.356 895.64L523.759 889.535H516.551ZM590.826 610.197L581.761 625.554L590.826 640.905H608.956L618.021 625.554L608.956 610.197H590.826ZM554.249 773.322L548.479 783.104L554.249 792.879H565.789L571.567 783.104L565.789 773.322H554.249ZM589.86 563.556L579.835 580.548L589.86 597.524H609.923L619.947 580.548L609.923 563.556H589.86ZM570.654 576.039L581.29 558.033L570.654 540.035H549.392L538.765 558.033L549.392 576.039H570.654ZM515.684 843.06L511.221 850.618L515.684 858.183H524.618L529.081 850.618L524.618 843.06H515.684ZM553.406 726.886L546.785 738.09L553.406 749.294H566.632L573.253 738.09L566.632 726.886H553.406ZM591.824 656.905L583.757 670.569L591.824 684.232H607.959L616.026 670.569L607.959 656.905H591.824ZM635.556 866.006L631.348 873.133L635.556 880.252H643.971L648.179 873.133L643.971 866.006H635.556ZM550.374 586.706L540.721 603.047L550.374 619.396H569.672L579.325 603.047L569.672 586.706H550.374ZM551.473 633.589L542.926 648.061L551.473 662.542H568.566L577.113 648.061L568.566 633.589H551.473ZM555.874 866.112L551.728 873.133L555.874 880.146H564.165L568.311 873.133L564.165 866.112H555.874ZM631.294 633.717L622.817 648.061L631.294 662.406H648.233L656.702 648.061L648.233 633.717H631.294ZM632.292 680.434L624.828 693.076L632.292 705.718H647.227L654.691 693.076L647.227 680.434H632.292ZM592.791 703.561L585.698 715.583L592.791 727.604H606.992L614.084 715.583L606.992 703.561H592.791ZM391.435 632.636L382.324 648.061L391.435 663.487H409.65L418.761 648.061L409.65 632.636H391.435ZM633.986 773.322L628.216 783.104L633.986 792.879H645.534L651.304 783.104L645.534 773.322H633.986ZM634.775 819.668L629.786 828.118L634.775 836.561H644.752L649.741 828.118L644.752 819.668H634.775ZM633.174 726.931L626.584 738.09L633.174 749.249H646.346L652.936 738.09L646.346 726.931H633.174ZM593.704 750.104L587.5 760.597L593.704 771.083H606.087L612.275 760.597L606.087 750.104H593.704ZM630.227 586.91L620.698 603.047L630.227 619.184H649.293L658.822 603.047L649.293 586.91H630.227ZM594.539 796.548L589.194 805.604L594.539 814.667H605.236L610.588 805.604L605.236 796.548H594.539ZM650.259 575.804L660.748 558.033L650.259 540.269H629.268L618.772 558.033L629.268 575.804H650.259ZM595.328 842.886L590.757 850.618L595.328 858.357H604.463L609.026 850.618L604.463 842.886H595.328ZM596.14 889.285L592.389 895.64L596.14 901.987H603.643L607.386 895.64L603.643 889.285H596.14ZM552.463 680.267L544.898 693.076L552.463 705.884H567.584L575.141 693.076L567.584 680.267H552.463ZM450.907 598.326L461.41 580.548L450.907 562.761H429.907L419.411 580.548L429.907 598.326H450.907ZM430.944 609.516L421.469 625.554L430.944 641.585H449.886L459.345 625.554L449.886 609.516H430.944ZM437.209 890.215L434.014 895.64L437.209 901.057H443.613L446.807 895.64L443.613 890.215H437.209ZM435.12 796.646L429.837 805.604L435.12 814.569H445.701L450.992 805.604L445.701 796.646H435.12ZM514.803 796.548L509.45 805.604L514.803 814.667H525.5L530.852 805.604L525.5 796.548H514.803ZM434.153 749.998L427.888 760.597L434.153 771.196H446.668L452.933 760.597L446.668 749.998H434.153ZM432.042 656.399L423.673 670.569L432.042 684.739H448.772L457.149 670.569L448.772 656.399H432.042ZM393.678 726.469L386.817 738.09L393.678 749.71H407.399L414.268 738.09L407.399 726.469H393.678ZM392.541 679.526L384.536 693.076L392.541 706.618H408.544L416.534 693.076L408.544 679.526H392.541ZM397.104 867.3L393.655 873.133L397.104 878.958H403.981L407.422 873.133L403.981 867.3H397.104ZM394.707 773.224L388.875 783.104L394.707 792.977H406.371L412.202 783.104L406.371 773.224H394.707ZM398.883 915.333L397.22 918.139L398.883 920.954H402.202L403.865 918.139L402.202 915.333H398.883ZM395.851 820.175L391.164 828.118L395.851 836.055H405.234L409.921 828.118L405.234 820.175H395.851ZM433.132 703.251L425.862 715.583L433.132 727.907H447.689L454.967 715.583L447.689 703.251H433.132ZM476.354 866.483L472.432 873.133L476.354 879.775H484.204L488.126 873.133L484.204 866.483H476.354ZM510.943 609.954L501.731 625.554L510.943 641.154H529.367L538.571 625.554L529.367 609.954H510.943ZM509.914 563.208L499.681 580.548L509.914 597.872H530.38L540.621 580.548L530.38 563.208H509.914ZM511.972 656.709L503.788 670.569L511.972 684.421H528.33L536.514 670.569L528.33 656.709H511.972ZM513.921 750.036L507.679 760.597L513.921 771.158H526.381L532.623 760.597L526.381 750.036H513.921ZM512.993 703.455L505.83 715.583L512.993 727.703H527.31L534.464 715.583L527.31 703.455H512.993ZM473.546 726.681L466.809 738.09L473.546 749.499H487.02L493.749 738.09L487.02 726.681H473.546ZM471.512 633.218L462.756 648.061L471.512 662.905H489.046L497.81 648.061L489.046 633.218H471.512ZM472.587 680.033L464.883 693.076L472.587 706.118H487.979L495.683 693.076L487.979 680.033H472.587ZM477.32 913.131L474.358 918.139L477.32 923.155H483.237L486.2 918.139L483.237 913.131H477.32ZM470.452 586.403L460.621 603.047L470.452 619.699H490.114L499.944 603.047L490.114 586.403H470.452ZM436.133 843.363L431.841 850.618L436.133 857.873H444.696L448.981 850.618L444.696 843.363H436.133ZM475.418 819.865L470.545 828.118L475.418 836.357H485.148L490.013 828.118L485.148 819.865H475.418ZM474.505 773.322L468.735 783.104L474.505 792.879H486.053L491.823 783.104L486.053 773.322H474.505ZM636.314 912.299L632.864 918.139L636.314 923.98H643.213L646.655 918.139L643.213 912.299H636.314ZM833.045 750.308L826.973 760.597L833.045 770.878H845.188L851.26 760.597L845.188 750.308H833.045ZM832.186 703.864L825.264 715.583L832.186 727.309H846.031L852.961 715.583L846.031 703.864H832.186ZM834.638 843.053L830.167 850.618L834.638 858.199H843.587L848.058 850.618L843.587 843.053H834.638ZM831.227 657.223L823.353 670.569L831.227 683.914H846.99L854.872 670.569L846.99 657.223H831.227ZM835.373 889.3L831.629 895.64L835.373 901.972H842.86L846.596 895.64L842.86 889.3H835.373ZM833.818 796.646L828.535 805.604L833.818 814.569H844.399L849.69 805.604L844.399 796.646H833.818ZM795.037 866.006L790.829 873.133L795.037 880.252H803.444L807.652 873.133L803.444 866.006H795.037ZM794.31 819.774L789.383 828.118L794.31 836.463H804.171L809.098 828.118L804.171 819.774H794.31ZM669.658 563.646L659.68 580.548L669.658 597.441H689.606L699.591 580.548L689.606 563.646H669.658ZM792.685 726.984L786.126 738.09L792.685 749.188H805.795L812.347 738.09L805.795 726.984H792.685ZM829.286 563.889L819.447 580.548L829.286 597.192H848.947L858.778 580.548L848.947 563.889H829.286ZM830.229 610.507L821.342 625.554L830.229 640.602H847.996L856.883 625.554L847.996 610.507H830.229ZM868.732 540.67L858.476 558.033L868.732 575.396H889.229L899.485 558.033L889.229 540.67H868.732ZM795.802 912.314L792.36 918.139L795.802 923.965H802.686L806.128 918.139L802.686 912.314H795.802ZM909.2 564.199L899.547 580.548L909.2 596.881H928.498L938.151 580.548L928.498 564.199H909.2ZM910.267 611.021L901.682 625.554L910.267 640.095H927.438L936.016 625.554L927.438 611.021H910.267ZM912.998 750.679L907.143 760.597L912.998 770.515H924.716L930.571 760.597L924.716 750.679H912.998ZM929.48 553.532L940.115 535.533L929.48 517.52H908.218L897.59 535.533L908.218 553.532H929.48ZM912.116 704.174L905.379 715.583L912.116 726.984H925.59L932.326 715.583L925.59 704.174H912.116ZM911.265 657.722L903.685 670.569L911.265 683.415H926.433L934.028 670.569L926.433 657.722H911.265ZM874.897 866.21L870.813 873.133L874.897 880.047H883.072L887.148 873.133L883.072 866.21H874.897ZM872.607 727.294L866.234 738.09L872.607 748.878H885.354L891.735 738.09L885.354 727.294H872.607ZM871.718 680.782L864.463 693.076L871.718 705.37H886.243L893.499 693.076L886.243 680.782H871.718ZM870.705 634.035L862.413 648.061L870.705 662.095H887.264L895.548 648.061L887.264 634.035H870.705ZM874.177 819.978L869.367 828.118L874.177 836.259H883.792L888.595 828.118L883.792 819.978H874.177ZM875.655 912.518L872.344 918.139L875.655 923.76H882.307L885.625 918.139L882.307 912.518H875.655ZM869.738 587.387L860.487 603.047L869.738 618.708H888.231L897.474 603.047L888.231 587.387H869.738ZM873.388 773.632L867.796 783.104L873.388 792.569H884.573L890.165 783.104L884.573 773.632H873.388ZM793.536 773.428L787.82 783.104L793.536 792.773H804.952L810.661 783.104L804.952 773.428H793.536ZM729.934 575.706L740.368 558.033L729.934 540.36H709.066L698.64 558.033L709.066 575.706H729.934ZM710.017 586.978L700.527 603.047L710.017 619.116H728.99L738.473 603.047L728.99 586.978H710.017ZM711.038 633.725L702.577 648.061L711.038 662.39H727.962L736.431 648.061L727.962 633.725H711.038ZM712.91 726.931L706.32 738.09L712.91 749.249H726.09L732.68 738.09L726.09 726.931H712.91ZM675.049 842.856L670.462 850.618L675.049 858.388H684.215L688.801 850.618L684.215 842.856H675.049ZM712.044 680.441L704.58 693.076L712.044 705.71H726.964L734.42 693.076L726.964 680.441H712.044ZM674.245 796.487L668.861 805.604L674.245 814.728H685.019L690.402 805.604L685.019 796.487H674.245ZM675.784 889.126L671.94 895.64L675.784 902.146H683.48L687.324 895.64L683.48 889.126H675.784ZM671.622 657.011L663.617 670.569L671.622 684.126H687.641L695.639 670.569L687.641 657.011H671.622ZM670.625 610.302L661.622 625.554L670.625 640.806H688.631L697.642 625.554L688.631 610.302H670.625ZM791.834 680.532L784.432 693.076L791.834 705.612H806.646L814.048 693.076L806.646 680.532H791.834ZM673.432 750.104L667.245 760.597L673.432 771.083H685.823L692.019 760.597L685.823 750.104H673.432ZM672.551 703.592L665.474 715.583L672.551 727.574H686.713L693.782 715.583L686.713 703.592H672.551ZM713.73 773.322L707.96 783.104L713.73 792.879H725.278L731.048 783.104L725.278 773.322H713.73ZM754.785 842.856L750.199 850.618L754.785 858.388H763.959L768.545 850.618L763.959 842.856H754.785ZM755.528 889.126L751.684 895.64L755.528 902.146H763.216L767.06 895.64L763.216 889.126H755.528ZM809.616 575.6L819.989 558.033L809.616 540.466H788.872L778.492 558.033L788.872 575.6H809.616ZM790.837 633.831L782.429 648.061L790.837 662.292H807.644L816.044 648.061L807.644 633.831H790.837ZM789.777 587.008L780.302 603.047L789.777 619.086H808.711L818.179 603.047L808.711 587.008H789.777ZM754.02 796.548L748.675 805.604L754.02 814.667H764.724L770.069 805.604L764.724 796.548H754.02ZM753.177 750.104L746.989 760.597L753.177 771.083H765.56L771.755 760.597L765.56 750.104H753.177ZM749.41 563.677L739.455 580.548L749.41 597.403H769.327L779.289 580.548L769.327 563.677H749.41ZM715.277 865.976L711.054 873.133L715.277 880.282H723.723L727.946 873.133L723.723 865.976H715.277ZM715.996 912.216L712.492 918.139L715.996 924.071H722.996L726.5 918.139L722.996 912.216H715.996ZM751.374 657.019L743.369 670.569L751.374 684.118H767.377L775.367 670.569L767.377 657.019H751.374ZM752.295 703.592L745.21 715.583L752.295 727.574H766.457L773.526 715.583L766.457 703.592H752.295ZM714.511 819.668L709.522 828.118L714.511 836.561H724.489L729.485 828.118L724.489 819.668H714.511ZM750.4 610.363L741.435 625.554L750.4 640.746H768.337L777.309 625.554L768.337 610.363H750.4ZM676.457 935.26L675.42 937H683.843L682.815 935.26H676.457ZM1368.52 306.74L1379.62 287.955L1368.52 269.163H1346.33L1335.24 287.955L1346.33 306.74H1368.52ZM1306.97 337.561L1296.4 355.476L1306.97 373.384H1328.13L1338.71 355.476L1328.13 337.561H1306.97ZM1169.11 464.191L1180.14 445.497L1169.11 426.811H1147.04L1136 445.497L1147.04 464.191H1169.11ZM1209.03 441.79L1220.13 422.998L1209.03 404.205H1186.84L1175.75 422.998L1186.84 441.79H1209.03ZM1248.87 419.223L1259.94 400.483L1248.87 381.751H1226.75L1215.69 400.483L1226.75 419.223H1248.87ZM1288.6 396.466L1299.51 377.976L1288.6 359.501H1266.76L1255.85 377.976L1266.76 396.466H1288.6ZM1387.04 248.07L1376.77 265.448L1387.04 282.818H1407.55L1417.81 265.448L1407.55 248.07H1387.04ZM1426.61 0L1416.06 17.8695L1426.61 35.7466H1439V0H1426.61ZM1374.85 220.434L1386.07 239.438H1408.52L1419.74 220.434L1408.52 201.429H1386.07L1374.85 220.434ZM1412.56 62.8913L1424.86 83.7189H1439V42.0562H1424.86L1412.56 62.8913ZM1414.24 107.906L1425.7 127.318H1439V88.4852H1425.7L1414.24 107.906ZM1417.38 197.927L1427.27 214.676H1439V181.177H1427.27L1417.38 197.927ZM1415.82 152.912L1426.49 170.986H1439V134.831H1426.49L1415.82 152.912ZM531.471 554.697L542.786 535.533L531.471 516.363H508.831L497.516 535.533L508.831 554.697H531.471ZM628.138 493.341L616.521 513.019L628.138 532.696H651.381L662.998 513.019L651.381 493.341H628.138ZM610.944 554.25L621.997 535.533L610.944 516.809H588.839L577.786 535.533L588.839 554.25H610.944ZM548.216 493.038L536.421 513.019L548.216 533.007H571.822L583.625 513.019L571.822 493.038H548.216ZM707.991 493.515L696.466 513.019L707.991 532.522H731.017L742.534 513.019L731.017 493.515H707.991ZM690.627 554.144L701.617 535.533L690.627 516.907H668.637L657.646 535.533L668.637 554.144H690.627ZM1129.16 486.562L1140.12 468.012L1129.16 449.454H1107.25L1096.29 468.012L1107.25 486.562H1129.16ZM667.492 469.949L655.349 490.512L667.492 511.082H691.779L703.922 490.512L691.779 469.949H667.492ZM371.704 599.234L382.741 580.548L371.704 561.854H349.637L338.6 580.548L349.637 599.234H371.704ZM1089.08 508.722L1099.84 490.512L1089.08 472.309H1067.57L1056.82 490.512L1067.57 508.722H1089.08ZM491.173 576.485L502.071 558.033L491.173 539.581H469.377L458.487 558.033L469.377 576.485H491.173ZM411.878 577.234L423.217 558.033L411.878 538.832H389.2L377.868 558.033L389.2 577.234H411.878ZM1409.64 196.323L1421.98 175.419L1409.64 154.516H1384.95L1372.61 175.419L1384.95 196.323H1409.64ZM428.731 515.742L417.052 535.533L428.731 555.309H452.09L463.769 535.533L452.09 515.742H428.731ZM492.318 533.415L504.369 513.019L492.318 492.63H468.24L456.197 513.019L468.24 533.415H492.318ZM915.968 935.767L915.248 937H922.457L921.73 935.767H915.968ZM836.03 935.434L835.11 937H843.123L842.195 935.434H836.03ZM596.813 935.434L595.885 937H603.898L602.97 935.434H596.813ZM756.185 935.26L755.164 937H763.58L762.551 935.26H756.185ZM995.952 936.175L995.472 937H1001.71L1001.23 936.175H995.952ZM913.748 796.956L908.628 805.604L913.748 814.259H923.965L929.07 805.604L923.965 796.956H913.748ZM1435.77 780.736L1434.37 783.104L1435.77 785.465H1438.56L1439 784.708V781.493L1438.56 780.736H1435.77ZM9.69925 783.104L5.77005 776.447H0V789.762H5.77005L9.69925 783.104ZM1369.64 263.64L1381.87 242.941L1369.64 222.242H1345.2L1332.98 242.941L1345.2 263.64H1369.64ZM517.37 935.941L516.752 937H523.558L522.932 935.941H517.37ZM1437.04 917.92L1436.91 918.139L1437.04 918.359H1437.29L1437.42 918.139L1437.29 917.92H1437.04ZM1436.25 826.575L1435.34 828.118L1436.25 829.662H1438.08L1438.99 828.118L1438.08 826.575H1436.25ZM1076.03 936.75L1075.88 937H1080.79L1080.64 936.75H1076.03ZM2.69166 739.535L3.54247 738.09L2.69166 736.653H0.990035L0.139224 738.09L0.990035 739.535H2.69166ZM0 898.522V937H13.876L25.0061 918.139L13.4273 898.522H0ZM269.05 560.431L257.169 580.548L269.05 600.657H292.81L304.691 580.548L292.81 560.431H269.05ZM747.275 470.024L735.163 490.512L747.275 511.006H771.477L783.574 490.512L771.477 470.024H747.275ZM970.884 488.598L983.043 468.012L970.884 447.411H946.558L934.399 468.012L946.558 488.598H970.884ZM1305.81 290.58L1294.08 310.462L1305.81 330.344H1329.29L1341.04 310.462L1329.29 290.58H1305.81ZM390.344 585.783L380.158 603.047L390.344 620.311H410.733L420.927 603.047L410.733 585.783H390.344ZM308.798 537.712L296.802 558.033L308.798 578.354H332.806L344.795 558.033L332.806 537.712H308.798ZM31.4568 833.263L21.2007 850.618L31.4568 867.981H51.9614L62.2175 850.618L51.9614 833.263H31.4568ZM53.5238 825.622L65.35 805.604L53.5238 785.593H29.8867L18.0759 805.604L29.8867 825.622H53.5238ZM34.0092 882.597L26.3133 895.64L34.0092 908.675H49.4089L57.1049 895.64L49.4089 882.597H34.0092ZM189.275 605.37L177.348 625.554L189.275 645.739H213.113L225.032 625.554L213.113 605.37H189.275ZM229.185 582.931L217.305 603.047L229.185 623.164H252.938L264.811 603.047L252.938 582.931H229.185ZM93.4964 758.274L105.423 738.09L93.4964 717.905H69.6582L57.7314 738.09L69.6582 758.274H93.4964ZM173.419 668.556L185.523 648.061L173.419 627.567H149.217L137.12 648.061L149.217 668.556H173.419ZM1289.72 353.358L1301.77 332.962L1289.72 312.58H1265.64L1253.6 332.962L1265.64 353.358H1289.72ZM271.494 654.59L262.058 670.569L271.494 686.539H290.366L299.803 670.569L290.366 654.59H271.494ZM238.637 869.025L236.216 873.133L238.637 877.233H243.487L245.908 873.133L243.487 869.025H238.637ZM236.255 819.978L231.444 828.118L236.255 836.259H245.861L250.68 828.118L245.861 819.978H236.255ZM280.072 894.18L279.213 895.64L280.072 897.085H281.789L282.647 895.64L281.789 894.18H280.072ZM275.524 796.442L270.109 805.604L275.524 814.773H286.337L291.751 805.604L286.337 796.442H275.524ZM274.069 748.969L267.201 760.597L274.069 772.218H287.791L294.659 760.597L287.791 748.969H274.069ZM272.708 701.655L264.486 715.583L272.708 729.503H289.152L297.374 715.583L289.152 701.655H272.708ZM194.936 795.012L188.679 805.604L194.936 816.195H207.443L213.693 805.604L207.443 795.012H194.936ZM234.53 772.044L228.002 783.104L234.53 794.157H247.586L254.122 783.104L247.586 772.044H234.53ZM200.196 893.945L199.198 895.64L200.196 897.319H202.184L203.181 895.64L202.184 893.945H200.196ZM233.014 724.472L224.978 738.09L233.014 751.708H249.102L257.138 738.09L249.102 724.472H233.014ZM231.753 677.309L222.448 693.076L231.753 708.834H250.363L259.668 693.076L250.363 677.309H231.753ZM197.025 843.567L192.863 850.618L197.025 857.669H205.355L209.516 850.618L205.355 843.567H197.025ZM277.364 844.581L273.791 850.618L277.364 856.663H284.496L288.069 850.618L284.496 844.581H277.364ZM354.239 749.703L347.796 760.597L354.239 771.491H367.102L373.537 760.597L367.102 749.703H354.239ZM353.094 702.752L345.514 715.583L353.094 728.414H368.246L375.834 715.583L368.246 702.752H353.094ZM355.446 796.752L350.209 805.604L355.446 814.463H365.903L371.132 805.604L365.903 796.752H355.446ZM356.768 844.006L352.862 850.618L356.768 857.238H364.58L368.479 850.618L364.58 844.006H356.768ZM351.903 655.725L343.14 670.569L351.903 685.404H369.438L378.193 670.569L369.438 655.725H351.903ZM358.71 892.319L356.753 895.64L358.71 898.953H362.631L364.596 895.64L362.631 892.319H358.71ZM193.266 747.184L185.345 760.597L193.266 774.011H209.114L217.034 760.597L209.114 747.184H193.266ZM312.371 678.807L303.941 693.076L312.371 707.344H329.233L337.656 693.076L329.233 678.807H312.371ZM350.774 608.789L340.874 625.554L350.774 642.319H370.567L380.467 625.554L370.567 608.789H350.774ZM311.126 631.682L301.466 648.061L311.126 664.433H330.47L340.139 648.061L330.47 631.682H311.126ZM313.586 725.864L306.369 738.09L313.586 750.308H328.019L335.235 738.09L328.019 725.864H313.586ZM316.293 820.485L311.784 828.118L316.293 835.752H325.311L329.813 828.118L325.311 820.485H316.293ZM314.792 772.921L308.775 783.104L314.792 793.287H326.812L332.822 783.104L326.812 772.921H314.792ZM318.141 868.624L315.488 873.133L318.141 877.634H323.463L326.116 873.133L323.463 868.624H318.141ZM251.639 665.976L262.22 648.061L251.639 630.147H230.477L219.904 648.061L230.477 665.976H251.639ZM1026.78 448.228L1015.1 468.012L1026.78 487.788H1050.14L1061.82 468.012L1050.14 448.228H1026.78ZM1066.41 425.313L1054.49 445.497L1066.41 465.689H1090.25L1102.17 445.497L1090.25 425.313H1066.41ZM770.348 554.122L781.323 535.533L770.348 516.938H748.397L737.421 535.533L748.397 554.122H770.348ZM331.6 621.333L342.39 603.047L331.6 584.769H310.005L299.207 603.047L310.005 621.333H331.6ZM1009.99 509.819L1021.38 490.512L1009.99 471.212H987.196L975.795 490.512L987.196 509.819H1009.99ZM291.588 643.598L302.239 625.554L291.588 607.503H270.272L259.621 625.554L270.272 643.598H291.588ZM851.097 510.802L863.07 490.512L851.097 470.229H827.128L815.147 490.512L827.128 510.802H851.097ZM211.821 688.574L222.456 670.569L211.821 652.563H190.558L179.931 670.569L190.558 688.574H211.821ZM787.781 493.613L776.326 513.019L787.781 532.424H810.699L822.154 513.019L810.699 493.613H787.781ZM907.034 470.501L895.216 490.512L907.034 510.53H930.671L942.49 490.512L930.671 470.501H907.034ZM969.716 531.637L980.707 513.019L969.716 494.408H947.726L936.735 513.019L947.726 531.637H969.716ZM849.968 553.91L860.82 535.533L849.968 517.142H828.257L817.405 535.533L828.257 553.91H849.968ZM890.32 532.22L901.651 513.019L890.32 493.818H867.649L856.31 513.019L867.649 532.22H890.32ZM113.227 791.683L105.006 805.604L113.227 819.539H129.671L137.893 805.604L129.671 791.683H113.227ZM172.111 711.361L182.909 693.076L172.111 674.79H150.524L139.726 693.076L150.524 711.361H172.111ZM118.727 891.032L116.012 895.64L118.727 900.24H124.164L126.879 895.64L124.164 891.032H118.727ZM115.316 840.231L109.182 850.618L115.316 861.005H127.583L133.717 850.618L127.583 840.231H115.316ZM155.242 817.829L149.17 828.118L155.242 838.4H167.393L173.465 828.118L167.393 817.829H155.242ZM157.833 867.232L154.353 873.133L157.833 879.026H164.802L168.283 873.133L164.802 867.232H157.833ZM153.37 769.645L145.427 783.104L153.37 796.556H169.265L177.208 783.104L169.265 769.645H153.37ZM151.854 722.051L142.379 738.09L151.854 754.121H170.789L180.256 738.09L170.789 722.051H151.854ZM71.0195 765.227L60.4695 783.104L71.0195 800.974H92.1351L102.685 783.104L92.1351 765.227H71.0195ZM110.188 696.518L98.9339 715.583L110.188 734.648H132.703L143.965 715.583L132.703 696.518H110.188ZM191.881 699.824L182.576 715.583L191.881 731.342H210.498L219.803 715.583L210.498 699.824H191.881ZM72.7521 813.169L63.9268 828.118L72.7521 843.06H90.4025L99.2355 828.118L90.4025 813.169H72.7521ZM111.657 744.006L101.858 760.597L111.657 777.18H131.249L141.041 760.597L131.249 744.006H111.657ZM75.1498 862.231L68.7069 873.133L75.1498 884.019H88.0125L94.4478 873.133L88.0125 862.231H75.1498ZM79.8293 915.166L78.0658 918.139L79.8293 921.113H83.3331L85.0888 918.139L83.3331 915.166H79.8293ZM1436.67 872.285L1436.17 873.133L1436.67 873.972H1437.66L1438.16 873.133L1437.66 872.285H1436.67ZM1244.98 322.59L1252.14 310.462L1244.98 298.335H1230.65L1223.49 310.462L1230.65 322.59H1244.98ZM1279.81 246.534L1281.93 242.941L1279.81 239.347H1275.56L1273.44 242.941L1275.56 246.534H1279.81ZM1321.91 227.795L1326.24 220.434L1321.91 213.072H1313.21L1308.86 220.434L1313.21 227.795H1321.91ZM1238.92 267.309L1240.01 265.448L1238.92 263.579H1236.72L1235.62 265.448L1236.72 267.309H1238.92ZM1286.27 302.488L1294.85 287.955L1286.27 273.414H1269.09L1260.52 287.955L1269.09 302.488H1286.27ZM1250.1 376.274L1262.38 355.476L1250.1 334.679H1225.53L1213.25 355.476L1225.53 376.274H1250.1ZM1317.63 175.533L1317.69 175.419L1317.63 175.306H1317.48L1317.42 175.419L1317.48 175.533H1317.63ZM1405.83 144.855L1414.36 130.405L1405.83 115.963H1388.76L1380.23 130.405L1388.76 144.855H1405.83ZM1328.83 284.551L1340.11 265.448L1328.83 246.353H1306.27L1295 265.448L1306.27 284.551H1328.83ZM1398.41 42.2756L1399.53 40.3766L1398.41 38.4853H1396.18L1395.06 40.3766L1396.18 42.2756H1398.41ZM1365.78 212.066L1374.12 197.927L1365.78 183.787H1349.07L1340.72 197.927L1349.07 212.066H1365.78ZM1360.37 157.89L1363.3 152.912L1360.37 147.927H1354.48L1351.54 152.912L1354.48 157.89H1360.37ZM1401.4 92.336L1405.5 85.3909L1401.4 78.4458H1393.2L1389.09 85.3909L1393.2 92.336H1401.4ZM1003.7 409.138L1008.81 400.483L1003.7 391.836H993.484L988.372 400.483L993.484 409.138H1003.7ZM1080.29 358.798L1082.25 355.476L1080.29 352.148H1076.38L1074.41 355.476L1076.38 358.798H1080.29ZM1125.84 390.92L1133.48 377.976L1125.84 365.039H1110.57L1102.92 377.976L1110.57 390.92H1125.84ZM1119.43 335.035L1120.64 332.962L1119.43 330.896H1116.98L1115.76 332.962L1116.98 335.035H1119.43ZM1049.86 442.305L1061.27 422.998L1049.86 403.676H1027.06L1015.66 422.998L1027.06 442.305H1049.86ZM1087.51 416.045L1096.7 400.483L1087.51 384.929H1069.14L1059.96 400.483L1069.14 416.045H1087.51ZM1041.73 383.514L1045 377.976L1041.73 372.453H1035.2L1031.93 377.976L1035.2 383.514H1041.73ZM1170.35 421.288L1182.64 400.483L1170.35 379.693H1145.8L1133.5 400.483L1145.8 421.288H1170.35ZM1204.68 344.378L1211.42 332.962L1204.68 321.561H1191.21L1184.47 332.962L1191.21 344.378H1204.68ZM1198.68 289.188L1199.41 287.955L1198.68 286.714H1197.21L1196.48 287.955L1197.21 289.188H1198.68ZM1164.81 366.877L1171.54 355.476L1164.81 344.068H1151.33L1144.6 355.476L1151.33 366.877H1164.81ZM1210.29 398.887L1222.62 377.976L1210.29 357.08H1185.61L1173.25 377.976L1185.61 398.887H1210.29ZM1130.3 443.485L1142.4 422.998L1130.3 402.503H1106.1L1094 422.998L1106.1 443.485H1130.3ZM1432.33 693.076L1434.75 697.169H1439V688.983H1434.75L1432.33 693.076ZM1158.83 311.741L1159.59 310.462L1158.83 309.184H1157.32L1156.56 310.462L1157.32 311.741H1158.83ZM1391.22 480.238L1385.15 490.512L1391.22 500.801H1403.37L1409.44 490.512L1403.37 480.238H1391.22ZM1355.13 779.208L1352.83 783.104L1355.13 786.993H1359.72L1362.02 783.104L1359.72 779.208H1355.13ZM1394.03 665.046L1390.77 670.569L1394.03 676.091H1400.55L1403.82 670.569L1400.55 665.046H1394.03ZM1390.5 433.99L1383.7 445.497L1390.5 457.004H1404.09L1410.88 445.497L1404.09 433.99H1390.5ZM1393.37 618.912L1389.45 625.554L1393.37 632.197H1401.22L1405.15 625.554L1401.22 618.912H1393.37ZM1392.73 572.808L1388.16 580.548L1392.73 588.272H1401.87L1406.43 580.548L1401.87 572.808H1392.73ZM1356.7 916.906L1355.96 918.139L1356.7 919.38H1358.15L1358.88 918.139L1358.15 916.906H1356.7ZM1355.71 825.206L1353.98 828.118L1355.71 831.031H1359.14L1360.86 828.118L1359.14 825.206H1355.71ZM1394.63 711.066L1391.97 715.583L1394.63 720.099H1399.96L1402.62 715.583L1399.96 711.066H1394.63ZM1389.71 387.652L1382.13 400.483L1389.71 413.322H1404.87L1412.45 400.483L1404.87 387.652H1389.71ZM1388.83 341.14L1380.36 355.476L1388.83 369.805H1405.76L1414.23 355.476L1405.76 341.14H1388.83ZM1387.94 294.628L1378.59 310.462L1387.94 326.297H1406.65L1415.99 310.462L1406.65 294.628H1387.94ZM1433.4 738.09L1435.29 741.275H1439V734.897H1435.29L1433.4 738.09ZM1356.21 871.067L1354.99 873.133L1356.21 875.19H1358.64L1359.86 873.133L1358.64 871.067H1356.21ZM1395.18 757.011L1393.06 760.597L1395.18 764.183H1399.41L1401.53 760.597L1399.41 757.011H1395.18ZM1424.66 422.998L1430.91 433.582H1439V412.406H1430.91L1424.66 422.998ZM1426.11 468.012L1431.63 477.37H1439V458.638H1431.63L1426.11 468.012ZM1428.72 558.033L1432.94 565.19H1439V550.884H1432.94L1428.72 558.033ZM1431.23 648.061L1434.2 653.077H1439V643.038H1434.2L1431.23 648.061ZM1430.04 603.047L1433.61 609.077H1439V597.018H1433.61L1430.04 603.047ZM1427.43 513.019L1432.29 521.265H1439V504.78H1432.29L1427.43 513.019ZM1396.68 894.596L1396.06 895.64L1396.68 896.676H1397.91L1398.53 895.64L1397.91 894.596H1396.68ZM1396.2 848.757L1395.09 850.618L1396.2 852.487H1398.39L1399.5 850.618L1398.39 848.757H1396.2ZM1395.72 802.941L1394.15 805.604L1395.72 808.274H1398.86L1400.44 805.604L1398.86 802.941H1395.72ZM1421.89 332.962L1429.53 345.906H1439V320.032H1429.53L1421.89 332.962ZM1423.24 377.976L1430.21 389.763H1439V366.197H1430.21L1423.24 377.976ZM1420.35 287.955L1428.76 302.193H1439V273.724H1428.76L1420.35 287.955ZM1418.91 242.941L1428.04 258.397H1439V227.485H1428.04L1418.91 242.941ZM1392 526.568L1386.71 535.533L1392 544.483H1402.58L1407.88 535.533L1402.58 526.568H1392ZM322.31 470.569L323.826 468.012L322.31 465.447H319.286L317.778 468.012L319.286 470.569H322.31ZM329.078 527.045L337.37 513.019L329.078 498.992H312.511L304.235 513.019L312.511 527.045H329.078ZM367.442 501.988L374.218 490.512L367.442 479.035H353.891L347.115 490.512L353.891 501.988H367.442ZM243.595 517.316L246.132 513.019L243.595 508.722H238.521L235.984 513.019L238.521 517.316H243.595ZM283.111 494.211L285.3 490.512L283.111 486.812H278.749L276.56 490.512L278.749 494.211H283.111ZM290.297 551.398L299.663 535.533L290.297 519.661H271.563L262.197 535.533L271.563 551.398H290.297ZM372.957 556.331L385.232 535.533L372.957 514.729H348.392L336.101 535.533L348.392 556.331H372.957ZM443.729 451.118L447.055 445.497L443.729 439.876H437.085L433.774 445.497L437.085 451.118H443.729ZM986.129 466.605H1011.06L1023.52 445.497L1011.06 424.397H986.129L973.668 445.497L986.129 466.605ZM405.767 476.864L410.996 468.012L405.767 459.153H395.31L390.081 468.012L395.31 476.864H405.767ZM361.425 446.783L362.183 445.497L361.425 444.226H359.916L359.158 445.497L359.916 446.783H361.425ZM250.92 574.722L260.774 558.033L250.92 541.344H231.204L221.342 558.033L231.204 574.722H250.92ZM412.999 534.126L425.467 513.019L412.999 491.919H388.078L375.61 513.019L388.078 534.126H412.999ZM17.3179 828.118L9.57549 815.008H0V841.229H9.57549L17.3179 828.118ZM203.607 539.626L206.028 535.533L203.607 531.433H198.773L196.352 535.533L198.773 539.626H203.607ZM91.4699 709.826L101.363 693.076L91.4699 676.326H71.6924L61.7998 693.076L71.6924 709.826H91.4699ZM42.587 672.051L43.461 670.569L42.587 669.086H40.8312L39.9572 670.569L40.8312 672.051H42.587ZM24.9906 873.133L13.4196 853.523H0V892.735H13.4196L24.9906 873.133ZM488.745 482.341L497.206 468.012L488.745 453.676H471.813L463.352 468.012L471.813 482.341H488.745ZM46.6399 723.927L51.5669 715.583L46.6399 707.238H36.7782L31.8513 715.583L36.7782 723.927H46.6399ZM52.3171 778.573L62.9368 760.597L52.3171 742.622H31.0933L20.4813 760.597L31.0933 778.573H52.3171ZM163.193 561.21L165.065 558.033L163.193 554.855H159.442L157.57 558.033L159.442 561.21H163.193ZM210.56 596.412L219.935 580.548L210.56 564.668H191.819L182.445 580.548L191.819 596.412H210.56ZM169.42 616.771L177.526 603.047L169.42 589.331H153.216L145.11 603.047L153.216 616.771H169.42ZM133.91 691.676L146.37 670.569L133.91 649.461H108.989L96.5206 670.569L108.989 691.676H133.91ZM127.583 635.942L133.717 625.554L127.583 615.167H115.316L109.182 625.554L115.316 635.942H127.583ZM85.2049 654.197L88.8169 648.061L85.2049 641.933H77.9575L74.3299 648.061L77.9575 654.197H85.2049ZM122.385 582.129L123.329 580.548L122.385 578.959H120.514L119.578 580.548L120.514 582.129H122.385ZM451.626 509.508L462.841 490.512L451.626 471.522H429.196L417.973 490.512L429.196 509.508H451.626ZM767.493 459.251L775.607 445.497L767.493 431.751H751.258L743.129 445.497L751.258 459.251H767.493ZM840.988 403.661L842.868 400.483L840.988 397.313H837.237L835.365 400.483L837.237 403.661H840.988ZM884.55 432.417L890.119 422.998L884.55 413.571H873.412L867.851 422.998L873.412 432.417H884.55ZM760.795 402.889L762.211 400.483L760.795 398.085H757.957L756.533 400.483L757.957 402.889H760.795ZM786.722 489.218H811.767L824.289 468.012L811.767 446.799H786.722L774.192 468.012L786.722 489.218ZM803.777 430.669L808.309 422.998L803.777 415.319H794.712L790.179 422.998L794.712 430.669H803.777ZM848.058 460.651L856.999 445.497L848.058 430.351H830.167L821.218 445.497L830.167 460.651H848.058ZM959.808 379.829L960.906 377.976L959.808 376.13H957.634L956.536 377.976L957.634 379.829H959.808ZM966.313 435.836L973.893 422.998L966.313 410.152H951.137L943.549 422.998L951.137 435.836H966.313ZM879.05 378.097L879.12 377.976L879.05 377.87H878.919L878.849 377.976L878.919 378.097H879.05ZM921.807 405.499L924.77 400.483L921.807 395.475H915.89L912.936 400.483L915.89 405.499H921.807ZM866.574 489.014H891.387L903.786 468.012L891.387 447.003H866.574L854.176 468.012L866.574 489.014ZM929.704 463.881L940.564 445.497L929.704 427.121H907.993L897.149 445.497L907.993 463.881H929.704ZM520.225 400.604L520.286 400.483L520.225 400.37H520.078L520.016 400.483L520.078 400.604H520.225ZM563.044 428.104L566.06 422.998L563.044 417.884H557.003L553.979 422.998L557.003 428.104H563.044ZM723.723 430.147L727.946 422.998L723.723 415.841H715.277L711.054 422.998L715.277 430.147H723.723ZM481.853 425.661L483.423 422.998L481.853 420.335H478.705L477.127 422.998L478.705 425.661H481.853ZM525.739 454.969L531.332 445.497L525.739 436.033H514.563L508.971 445.497L514.563 454.969H525.739ZM607.046 457.625L614.208 445.497L607.046 433.385H592.737L585.575 445.497L592.737 457.625H607.046ZM507.749 511.521H532.554L544.952 490.512L532.554 469.51H507.749L495.342 490.512L507.749 511.521ZM570.941 486.494L581.846 468.012L570.941 449.522H549.106L538.192 468.012L549.106 486.494H570.941ZM680.958 402.745L682.304 400.483L680.958 398.229H678.298L676.959 400.483L678.298 402.745H680.958ZM915.295 889.61L911.729 895.64L915.295 901.662H922.411L925.976 895.64L922.411 889.61H915.295ZM707.039 489.112H731.961L744.429 468.012L731.961 446.905H707.039L694.579 468.012L707.039 489.112ZM600.75 401.943L601.609 400.483L600.75 399.038H599.033L598.174 400.483L599.033 401.943H600.75ZM587.609 469.714L575.326 490.512L587.609 511.316H612.174L624.457 490.512L612.174 469.714H587.609ZM652 488.741L664.244 468.012L652 447.275H627.52L615.276 468.012L627.52 488.741H652ZM643.685 429.633L647.606 422.998L643.685 416.348H635.834L631.913 422.998L635.834 429.633H643.685ZM687.556 458.918L695.476 445.497L687.556 432.091H671.715L663.787 445.497L671.715 458.918H687.556ZM1075.46 890.753L1072.57 895.64L1075.46 900.512H1081.21L1084.1 895.64L1081.21 890.753H1075.46ZM1074.78 844.588L1071.21 850.618L1074.78 856.648H1081.89L1085.46 850.618L1081.89 844.588H1074.78ZM1074.01 798.28L1069.68 805.604L1074.01 812.935H1082.66L1086.98 805.604L1082.66 798.28H1074.01ZM1108.31 496.276L1098.43 513.019L1108.31 529.769H1128.1L1137.98 513.019L1128.1 496.276H1108.31ZM1111.34 636.441L1104.48 648.061L1111.34 659.682H1125.07L1131.93 648.061L1125.07 636.441H1111.34ZM1109.32 542.985L1100.43 558.033L1109.32 573.088H1127.09L1135.97 558.033L1127.09 542.985H1109.32ZM1110.35 589.732L1102.48 603.047L1110.35 616.362H1126.06L1133.93 603.047L1126.06 589.732H1110.35ZM1068.6 519.056L1058.88 535.533L1068.6 552.003H1088.06L1097.79 535.533L1088.06 519.056H1068.6ZM1073.21 751.912L1068.08 760.597L1073.21 769.275H1083.46L1088.59 760.597L1083.46 751.912H1073.21ZM1069.68 565.886L1061.03 580.548L1069.68 595.194H1086.98L1095.64 580.548L1086.98 565.886H1069.68ZM1070.65 612.549L1062.97 625.554L1070.65 638.567H1086.01L1093.69 625.554L1086.01 612.549H1070.65ZM1072.42 705.559L1066.5 715.583L1072.42 725.599H1084.25L1090.17 715.583L1084.25 705.559H1072.42ZM1071.6 659.167L1064.86 670.569L1071.6 681.977H1085.07L1091.81 670.569L1085.07 659.167H1071.6ZM1150.13 567.081L1142.18 580.548L1150.13 593.999H1166.01L1173.96 580.548L1166.01 567.081H1150.13ZM1035.03 867.3L1031.58 873.133L1035.03 878.958H1041.9L1045.35 873.133L1041.9 867.3H1035.03ZM1151.09 613.745L1144.12 625.554L1151.09 637.372H1165.05L1172.03 625.554L1165.05 613.745H1151.09ZM1149.12 520.365L1140.16 535.533L1149.12 550.695H1167.03L1175.98 535.533L1167.03 520.365H1149.12ZM1151.94 660.181L1145.81 670.569L1151.94 680.956H1164.2L1170.34 670.569L1164.2 660.181H1151.94ZM1153.55 752.933L1149.02 760.597L1153.55 768.261H1162.59L1167.13 760.597L1162.59 752.933H1153.55ZM1152.76 706.588L1147.44 715.583L1152.76 724.586H1163.39L1168.71 715.583L1163.39 706.588H1152.76ZM1114.55 821.907L1110.87 828.118L1114.55 834.322H1121.86L1125.53 828.118L1121.86 821.907H1114.55ZM1112.97 729.231L1107.75 738.09L1112.97 746.949H1123.43L1128.66 738.09L1123.43 729.231H1112.97ZM1113.8 775.645L1109.4 783.104L1113.8 790.564H1122.61L1127.01 783.104L1122.61 775.645H1113.8ZM1115.84 914.137L1113.47 918.139L1115.84 922.149H1120.57L1122.93 918.139L1120.57 914.137H1115.84ZM1112.19 682.885L1106.16 693.076L1112.19 703.266H1124.22L1130.24 693.076L1124.22 682.885H1112.19ZM1115.24 868.109L1112.27 873.133L1115.24 878.149H1121.17L1124.14 873.133L1121.17 868.109H1115.24ZM1148.06 473.557L1138.05 490.512L1148.06 507.473H1168.09L1178.09 490.512L1168.09 473.557H1148.06ZM1049 530.858L1059.54 513.019L1049 495.179H1027.93L1017.39 513.019L1027.93 530.858H1049ZM954.192 820.455L949.675 828.118L954.192 835.782H963.25L967.767 828.118L963.25 820.455H954.192ZM955.639 912.927L952.56 918.139L955.639 923.359H961.803L964.882 918.139L961.803 912.927H955.639ZM954.935 866.717L951.153 873.133L954.935 879.541H962.507L966.289 873.133L962.507 866.717H954.935ZM989.346 564.88L980.103 580.548L989.346 596.201H1007.84L1017.08 580.548L1007.84 564.88H989.346ZM953.411 774.101L948.097 783.104L953.411 792.099H964.031L969.352 783.104L964.031 774.101H953.411ZM988.318 518.125L978.038 535.533L988.318 552.934H1008.88L1019.15 535.533L1008.88 518.125H988.318ZM952.584 727.703L946.458 738.09L952.584 748.47H964.858L970.992 738.09L964.858 727.703H952.584ZM948.747 541.139L938.769 558.033L948.747 574.927H968.695L978.68 558.033L968.695 541.139H948.747ZM914.56 843.355L910.267 850.618L914.56 857.888H923.138L927.438 850.618L923.138 843.355H914.56ZM950.719 634.519L942.722 648.061L950.719 661.611H966.722L974.728 648.061L966.722 634.519H950.719ZM951.71 681.198L944.702 693.076L951.71 704.953H965.732L972.748 693.076L965.732 681.198H951.71ZM990.344 611.589L982.099 625.554L990.344 639.52H1006.84L1015.09 625.554L1006.84 611.589H990.344ZM949.768 587.886L940.819 603.047L949.768 618.208H967.674L976.631 603.047L967.674 587.886H949.768ZM1031.91 681.977L1025.35 693.076L1031.91 704.174H1045.02L1051.57 693.076L1045.02 681.977H1031.91ZM991.365 658.335L984.141 670.569L991.365 682.802H1005.82L1013.05 670.569L1005.82 658.335H991.365ZM1030 588.711L1021.53 603.047L1030 617.376H1046.93L1055.39 603.047L1046.93 588.711H1030ZM1035.74 913.532L1033.01 918.139L1035.74 922.762H1041.18L1043.91 918.139L1041.18 913.532H1035.74ZM1034.3 821.068L1030.14 828.118L1034.3 835.169H1042.62L1046.78 828.118L1042.62 821.068H1034.3ZM1032.73 728.376L1026.99 738.09L1032.73 747.804H1044.19L1049.94 738.09L1044.19 728.376H1032.73ZM1033.51 774.714L1028.55 783.104L1033.51 791.494H1043.42L1048.37 783.104L1043.42 774.714H1033.51ZM1031.01 635.435L1023.55 648.061L1031.01 660.696H1045.92L1053.38 648.061L1045.92 635.435H1031.01ZM993.848 797.569L989.099 805.604L993.848 813.653H1003.34L1008.09 805.604L1003.34 797.569H993.848ZM993.02 751.171L987.459 760.597L993.02 770.024H1004.16L1009.73 760.597L1004.16 751.171H993.02ZM992.224 704.795L985.843 715.583L992.224 726.379H1004.96L1011.34 715.583L1004.96 704.795H992.224ZM1028.93 541.896L1019.4 558.033L1028.93 574.178H1047.99L1057.52 558.033L1047.99 541.896H1028.93ZM1154.33 799.271L1150.58 805.604L1154.33 811.944H1161.81L1165.56 805.604L1161.81 799.271H1154.33ZM994.567 843.802L990.545 850.618L994.567 857.434H1002.62L1006.64 850.618L1002.62 843.802H994.567ZM995.333 890.109L992.069 895.64L995.333 901.155H1001.85L1005.12 895.64L1001.85 890.109H995.333ZM1313.93 709.447L1310.31 715.583L1313.93 721.718H1321.18L1324.8 715.583L1321.18 709.447H1313.93ZM1272.43 639.172L1267.19 648.061L1272.43 656.943H1282.93L1288.18 648.061L1282.93 639.172H1272.43ZM1309.99 477.711L1302.44 490.512L1309.99 503.312H1325.11L1332.67 490.512L1325.11 477.711H1309.99ZM1310.84 524.147L1304.12 535.533L1310.84 546.904H1324.27L1330.99 535.533L1324.27 524.147H1310.84ZM1312.45 616.907L1307.33 625.554L1312.45 634.209H1322.66L1327.77 625.554L1322.66 616.907H1312.45ZM1311.66 570.569L1305.77 580.548L1311.66 590.519H1323.44L1329.34 580.548L1323.44 570.569H1311.66ZM1308.02 384.346L1298.5 400.483L1308.02 416.628H1327.08L1336.62 400.483L1327.08 384.346H1308.02ZM1275.81 869.948L1273.92 873.133L1275.81 876.31H1279.57L1281.45 873.133L1279.57 869.948H1275.81ZM1313.21 663.215L1308.86 670.569L1313.21 677.93H1321.91L1326.24 670.569L1321.91 663.215H1313.21ZM1155.65 891.532L1153.23 895.64L1155.65 899.74H1160.5L1162.93 895.64L1160.5 891.532H1155.65ZM1273.94 731.75L1270.2 738.09L1273.94 744.422H1281.43L1285.17 738.09L1281.43 731.75H1273.94ZM1276.35 915.885L1275.02 918.139L1276.35 920.401H1279.02L1280.35 918.139L1279.02 915.885H1276.35ZM1275.26 824.01L1272.84 828.118L1275.26 832.227H1280.11L1282.54 828.118L1280.11 824.01H1275.26ZM1274.61 777.884L1271.52 783.104L1274.61 788.317H1280.76L1283.84 783.104L1280.76 777.884H1274.61ZM1309.03 431.062L1300.5 445.497L1309.03 459.932H1326.08L1334.6 445.497L1326.08 431.062H1309.03ZM1350.99 502.125L1344.56 513.019L1350.99 523.913H1363.86L1370.29 513.019L1363.86 502.125H1350.99ZM1351.78 548.47L1346.12 558.033L1351.78 567.611H1363.08L1368.72 558.033L1363.08 548.47H1351.78ZM1354.58 733.278L1351.75 738.09L1354.58 742.894H1360.26L1363.1 738.09L1360.26 733.278H1354.58ZM1352.55 594.801L1347.68 603.047L1352.55 611.286H1362.3L1367.16 603.047L1362.3 594.801H1352.55ZM1353.97 687.235L1350.53 693.076L1353.97 698.916H1360.87L1364.32 693.076L1360.87 687.235H1353.97ZM1350.21 455.786L1342.99 468.012L1350.21 480.238H1364.64L1371.86 468.012L1364.64 455.786H1350.21ZM1353.26 641.01L1349.09 648.061L1353.26 655.112H1361.59L1365.75 648.061L1361.59 641.01H1353.26ZM1316.26 893.438L1314.96 895.64L1316.26 897.834H1318.86L1320.15 895.64L1318.86 893.438H1316.26ZM1315.19 801.609L1312.82 805.604L1315.19 809.613H1319.92L1322.28 805.604L1319.92 801.609H1315.19ZM1314.59 755.574L1311.63 760.597L1314.59 765.613H1320.52L1323.49 760.597L1320.52 755.574H1314.59ZM1349.25 409.138L1341.06 422.998L1349.25 436.85H1365.61L1373.79 422.998L1365.61 409.138H1349.25ZM1348.36 362.626L1339.29 377.976L1348.36 393.334H1366.49L1375.55 377.976L1366.49 362.626H1348.36ZM1347.4 315.985L1337.36 332.962L1347.4 349.954H1367.45L1377.49 332.962L1367.45 315.985H1347.4ZM1315.73 847.539L1313.92 850.618L1315.73 853.705H1319.38L1321.2 850.618L1319.38 847.539H1315.73ZM1273.22 685.518L1268.75 693.076L1273.22 700.634H1282.15L1286.62 693.076L1282.15 685.518H1273.22ZM1192.63 684.073L1187.31 693.076L1192.63 702.079H1203.26L1208.57 693.076L1203.26 684.073H1192.63ZM1193.42 730.426L1188.9 738.09L1193.42 745.746H1202.47L1206.99 738.09L1202.47 730.426H1193.42ZM1194.14 776.658L1190.34 783.104L1194.14 789.535H1201.75L1205.55 783.104L1201.75 776.658H1194.14ZM1195.47 868.934L1192.99 873.133L1195.47 877.324H1200.42L1202.9 873.133L1200.42 868.934H1195.47ZM1194.82 822.83L1191.71 828.118L1194.82 833.399H1201.06L1204.18 828.118L1201.06 822.83H1194.82ZM1196.01 914.864L1194.07 918.139L1196.01 921.423H1199.88L1201.81 918.139L1199.88 914.864H1196.01ZM1191.81 637.674L1185.67 648.061L1191.81 658.449H1204.08L1210.21 648.061L1204.08 637.674H1191.81ZM1155 845.405L1151.92 850.618L1155 855.838H1161.15L1164.23 850.618L1161.15 845.405H1155ZM1187.93 451.058L1177.92 468.012L1187.93 484.966H1207.96L1217.97 468.012L1207.96 451.058H1187.93ZM1227.87 428.649L1217.91 445.497L1227.87 462.361H1247.77L1257.72 445.497L1247.77 428.649H1227.87ZM1190.93 591.162L1183.9 603.047L1190.93 614.932H1204.97L1211.98 603.047L1204.97 591.162H1190.93ZM1188.93 497.767L1179.94 513.019L1188.93 528.271H1206.95L1215.96 513.019L1206.95 497.767H1188.93ZM1189.94 544.483L1181.94 558.033L1189.94 571.583H1205.95L1213.94 558.033L1205.95 544.483H1189.94ZM1234.7 800.323L1231.57 805.604L1234.7 810.9H1240.94L1244.06 805.604L1240.94 800.323H1234.7ZM1267.9 406.414L1258.1 422.998L1267.9 439.574H1287.47L1297.26 422.998L1287.47 406.414H1267.9ZM1235.33 846.419L1232.85 850.618L1235.33 854.832H1240.3L1242.78 850.618L1240.3 846.419H1235.33ZM1269.86 499.779L1262.05 513.019L1269.86 526.266H1285.5L1293.33 513.019L1285.5 499.779H1269.86ZM1228.87 475.366L1219.92 490.512L1228.87 505.665H1246.76L1255.7 490.512L1246.76 475.366H1228.87ZM1235.88 892.356L1233.95 895.64L1235.88 898.908H1239.75L1241.69 895.64L1239.75 892.356H1235.88ZM1268.92 453.161L1260.16 468.012L1268.92 482.848H1286.45L1295.21 468.012L1286.45 453.161H1268.92ZM1270.82 546.412L1263.96 558.033L1270.82 569.661H1284.55L1291.41 558.033L1284.55 546.412H1270.82ZM1230.84 568.73L1223.86 580.548L1230.84 592.357H1244.79L1251.77 580.548L1244.79 568.73H1230.84ZM1229.86 522.067L1221.92 535.533L1229.86 548.985H1245.76L1253.7 535.533L1245.76 522.067H1229.86ZM1231.68 615.167L1225.55 625.554L1231.68 635.942H1243.95L1250.08 625.554L1243.95 615.167H1231.68ZM1271.63 592.789L1265.58 603.047L1271.63 613.306H1283.74L1289.79 603.047L1283.74 592.789H1271.63ZM1232.5 661.566L1227.19 670.569L1232.5 679.571H1243.14L1248.44 670.569L1243.14 661.566H1232.5ZM1234.02 754.159L1230.21 760.597L1234.02 767.035H1241.62L1245.42 760.597L1241.62 754.159H1234.02ZM1242.34 707.919L1246.86 715.583L1242.34 723.247H1233.29L1228.76 715.583L1233.29 707.919H1242.34Z" fill="#ECF5FD"/>
</svg>
