<svg width="1440" height="1459" viewBox="0 0 1440 1459" fill="none" xmlns="http://www.w3.org/2000/svg">
<g clip-path="url(#clip0_303_419)">
<rect width="719" height="1459" fill="#10338E"/>
<mask id="mask0_303_419" style="mask-type:luminance" maskUnits="userSpaceOnUse" x="0" y="671" width="409" height="442">
<path d="M0.615234 671.736H408.001V1112.53H0.615234V671.736Z" fill="white"/>
</mask>
<g mask="url(#mask0_303_419)">
<path fill-rule="evenodd" clip-rule="evenodd" d="M84.5423 672.486L245.808 849.592L407.074 1026.6L329.548 1111.74H0.615234V764.66L84.5423 672.486Z" fill="#7CB5E9" fill-opacity="0.45"/>
</g>
<mask id="mask1_303_419" style="mask-type:luminance" maskUnits="userSpaceOnUse" x="16" y="433" width="218" height="241">
<path d="M16 433.662H233.333V673.201H16V433.662Z" fill="white"/>
</mask>
<g mask="url(#mask1_303_419)">
<path fill-rule="evenodd" clip-rule="evenodd" d="M124.953 434.451L233.088 553.208L179.021 612.696L124.953 672.074L70.8851 612.696L16.7236 553.208L70.8851 493.83L124.953 434.451Z" fill="#0D5DBA" fill-opacity="0.26"/>
</g>
<mask id="mask2_303_419" style="mask-type:luminance" maskUnits="userSpaceOnUse" x="0" y="455" width="218" height="471">
<path d="M0.615234 455H217.334V925.086H0.615234V455Z" fill="white"/>
</mask>
<g mask="url(#mask2_303_419)">
<path fill-rule="evenodd" clip-rule="evenodd" d="M3.44336 455.76L110.167 572.967L216.985 690.179L110.167 807.489L3.44336 924.702L0.615234 921.596V458.86L3.44336 455.76Z" fill="#89D0FF" fill-opacity="0.28"/>
</g>
<mask id="mask3_303_419" style="mask-type:luminance" maskUnits="userSpaceOnUse" x="122" y="601" width="638" height="512">
<path d="M122.666 601.443H759.838V1112.53H122.666V601.443Z" fill="white"/>
</mask>
<g mask="url(#mask3_303_419)">
<path fill-rule="evenodd" clip-rule="evenodd" d="M441.359 602.867L600.359 777.491L759.364 952.217L614.114 1111.74H268.604L123.354 952.217L282.354 777.491L441.359 602.867Z" fill="#2B80E4" fill-opacity="0.63"/>
</g>
<path fill-rule="evenodd" clip-rule="evenodd" d="M407.447 934.428L522.083 1060.32L568.9 1111.74H245.994L292.812 1060.32L407.447 934.428Z" fill="#0D5DBA" fill-opacity="0.15"/>
</g>
<g clip-path="url(#clip1_303_419)">
<rect width="724" height="1459" transform="matrix(-1 0 0 1 1440 0)" fill="#10338E"/>
<mask id="mask4_303_419" style="mask-type:luminance" maskUnits="userSpaceOnUse" x="1031" y="671" width="409" height="442">
<path d="M1439.38 671.736H1032V1112.53H1439.38V671.736Z" fill="white"/>
</mask>
<g mask="url(#mask4_303_419)">
<path fill-rule="evenodd" clip-rule="evenodd" d="M1355.46 672.486L1194.19 849.592L1032.93 1026.6L1110.45 1111.74H1439.38V764.66L1355.46 672.486Z" fill="#7CB5E9" fill-opacity="0.45"/>
</g>
<mask id="mask5_303_419" style="mask-type:luminance" maskUnits="userSpaceOnUse" x="1206" y="433" width="218" height="241">
<path d="M1424 433.662H1206.67V673.201H1424V433.662Z" fill="white"/>
</mask>
<g mask="url(#mask5_303_419)">
<path fill-rule="evenodd" clip-rule="evenodd" d="M1315.05 434.451L1206.91 553.208L1260.98 612.696L1315.05 672.074L1369.11 612.696L1423.28 553.208L1369.11 493.83L1315.05 434.451Z" fill="#0D5DBA" fill-opacity="0.26"/>
</g>
<mask id="mask6_303_419" style="mask-type:luminance" maskUnits="userSpaceOnUse" x="1222" y="455" width="218" height="471">
<path d="M1439.38 455H1222.67V925.086H1439.38V455Z" fill="white"/>
</mask>
<g mask="url(#mask6_303_419)">
<path fill-rule="evenodd" clip-rule="evenodd" d="M1436.56 455.76L1329.83 572.967L1223.01 690.179L1329.83 807.489L1436.56 924.702L1439.38 921.596V458.86L1436.56 455.76Z" fill="#89D0FF" fill-opacity="0.28"/>
</g>
<mask id="mask7_303_419" style="mask-type:luminance" maskUnits="userSpaceOnUse" x="680" y="601" width="638" height="512">
<path d="M1317.33 601.443H680.162V1112.53H1317.33V601.443Z" fill="white"/>
</mask>
<g mask="url(#mask7_303_419)">
<path fill-rule="evenodd" clip-rule="evenodd" d="M998.641 602.867L839.641 777.491L680.636 952.217L825.886 1111.74H1171.4L1316.65 952.217L1157.65 777.491L998.641 602.867Z" fill="#2B80E4" fill-opacity="0.63"/>
</g>
<path fill-rule="evenodd" clip-rule="evenodd" d="M1032.55 934.428L917.917 1060.32L871.1 1111.74H1194.01L1147.19 1060.32L1032.55 934.428Z" fill="#0D5DBA" fill-opacity="0.15"/>
</g>
<defs>
<clipPath id="clip0_303_419">
<rect width="719" height="1459" fill="white"/>
</clipPath>
<clipPath id="clip1_303_419">
<rect width="724" height="1459" fill="white" transform="matrix(-1 0 0 1 1440 0)"/>
</clipPath>
</defs>
</svg>
