<svg width="48" height="48" viewBox="0 0 48 48" fill="none" xmlns="http://www.w3.org/2000/svg">
<g id="ion:download-sharp">
<path id="Vector" d="M25.5 15V28.8159L31.5 22.8159L33.6216 24.9375L24 34.5591L14.3784 24.9375L16.5 22.8159L22.5 28.8159V15H8.625C8.32663 15 8.04048 15.1185 7.8295 15.3295C7.61853 15.5405 7.5 15.8266 7.5 16.125V43.875C7.5 44.1734 7.61853 44.4595 7.8295 44.6705C8.04048 44.8815 8.32663 45 8.625 45H39.375C39.6734 45 39.9595 44.8815 40.1705 44.6705C40.3815 44.4595 40.5 44.1734 40.5 43.875V16.125C40.5 15.8266 40.3815 15.5405 40.1705 15.3295C39.9595 15.1185 39.6734 15 39.375 15H25.5ZM22.5 3H25.5V15H22.5V3Z" fill="white"/>
</g>
</svg>
