<svg width="17" height="16" viewBox="0 0 17 16" fill="none" xmlns="http://www.w3.org/2000/svg">
<g id="pajamas:filter">
<path id="Vector" fill-rule="evenodd" clip-rule="evenodd" d="M9 8.379L9.44 7.939L14 3.379V2.5H3V3.379L7.56 7.939L8 8.379V12.379L9 11.379V8.379ZM10.5 12L8 14.5L6.5 16V9L1.793 4.293C1.60545 4.10551 1.50006 3.85119 1.5 3.586V2C1.5 1.73478 1.60536 1.48043 1.79289 1.29289C1.98043 1.10536 2.23478 1 2.5 1H14.5C14.7652 1 15.0196 1.10536 15.2071 1.29289C15.3946 1.48043 15.5 1.73478 15.5 2V3.586C15.4999 3.85119 15.3945 4.10551 15.207 4.293L10.5 9V12Z" fill="white"/>
</g>
</svg>
