<svg width="16" height="17" viewBox="0 0 16 17" fill="none" xmlns="http://www.w3.org/2000/svg">
<g id="material-symbols:phone-enabled-outline">
<path id="Vector" d="M2.7 14.9717C2.5 14.9717 2.33333 14.905 2.2 14.7717C2.06667 14.6383 2 14.4717 2 14.2717V11.5717C2 11.4272 2.05 11.2966 2.15 11.1797C2.25 11.0628 2.37778 10.9823 2.53333 10.9383L4.83333 10.4717C4.98889 10.4495 5.14733 10.4635 5.30867 10.5137C5.47 10.5639 5.60044 10.6388 5.7 10.7383L7.26667 12.305C7.68889 12.0606 8.08889 11.791 8.46667 11.4963C8.84444 11.2017 9.20556 10.8823 9.55 10.5383C9.91667 10.1828 10.2529 9.81324 10.5587 9.42968C10.8644 9.04613 11.1282 8.64902 11.35 8.23835L9.73333 6.60502C9.64444 6.51613 9.58333 6.41057 9.55 6.28835C9.51667 6.16613 9.51111 6.01613 9.53333 5.83835L9.96667 3.50502C9.98889 3.36057 10.0611 3.23546 10.1833 3.12968C10.3056 3.0239 10.4444 2.97124 10.6 2.97168H13.3C13.5 2.97168 13.6667 3.03835 13.8 3.17168C13.9333 3.30502 14 3.47168 14 3.67168C14 5.06057 13.6971 6.43279 13.0913 7.78835C12.4856 9.14391 11.6273 10.3772 10.5167 11.4883C9.40556 12.5995 8.17222 13.4579 6.81667 14.0637C5.46111 14.6695 4.08889 14.9721 2.7 14.9717ZM11.9667 6.97168C12.1556 6.53835 12.3 6.09946 12.4 5.65502C12.5 5.21057 12.5778 4.76057 12.6333 4.30502H11.1667L10.8667 5.87168L11.9667 6.97168ZM6 12.905L4.9 11.805L3.33333 12.1383V13.605C3.78889 13.5717 4.23889 13.4939 4.68333 13.3717C5.12778 13.2495 5.56667 13.0939 6 12.905Z" fill="#3A97E3"/>
</g>
</svg>
