<svg width="16" height="17" viewBox="0 0 16 17" fill="none" xmlns="http://www.w3.org/2000/svg">
<g id="subway:print" clip-path="url(#clip0_143_5049)">
<path id="Vector" d="M12 12.3061H4V12.9717H12V12.3061ZM3.33437 1.6373H9.33438V4.97168H12.6687V6.30605H13.3344V4.30605L10 0.97168H2.66563V6.30605H3.33125V1.6373H3.33437ZM14 6.97168H2C0.665625 6.97168 0 7.6373 0 8.97168V12.9717H2.66563V16.9717H13.3313V12.9717H16V8.97168C16 7.6373 15.3344 6.97168 14 6.97168ZM2.66563 9.6373H1.33438V8.30293H2.66875V9.6373H2.66563ZM12.6656 16.3061H3.33437V11.6373H12.6687V16.3061H12.6656ZM12 13.6373H4V14.3029H12V13.6373ZM12 14.9717H4V15.6373H12V14.9717Z" fill="#3A97E3"/>
</g>
<defs>
<clipPath id="clip0_143_5049">
<rect width="16" height="16" fill="white" transform="translate(0 0.97168)"/>
</clipPath>
</defs>
</svg>
