<svg width="25" height="25" viewBox="0 0 25 25" fill="none" xmlns="http://www.w3.org/2000/svg">
<path d="M12.8291 3.17383C9.10254 3.17383 6.0791 6.05148 6.0791 9.5957C6.0791 13.6738 10.5791 20.1365 12.2314 22.3687C12.3 22.4629 12.3899 22.5396 12.4938 22.5924C12.5977 22.6453 12.7126 22.6729 12.8291 22.6729C12.9456 22.6729 13.0605 22.6453 13.1644 22.5924C13.2683 22.5396 13.3582 22.4629 13.4268 22.3687C15.0791 20.1374 19.5791 13.6771 19.5791 9.5957C19.5791 6.05148 16.5557 3.17383 12.8291 3.17383Z" stroke="#1D1E1F" stroke-width="1.5" stroke-linecap="round" stroke-linejoin="round"/>
<path d="M12.8291 12.1738C14.0717 12.1738 15.0791 11.1665 15.0791 9.92383C15.0791 8.68119 14.0717 7.67383 12.8291 7.67383C11.5865 7.67383 10.5791 8.68119 10.5791 9.92383C10.5791 11.1665 11.5865 12.1738 12.8291 12.1738Z" stroke="#1D1E1F" stroke-width="1.5" stroke-linecap="round" stroke-linejoin="round"/>
</svg>
