<svg width="98" height="98" viewBox="0 0 98 98" fill="none" xmlns="http://www.w3.org/2000/svg">
<g id="ph:house-light">
<path id="Vector" d="M82.9008 40.3477L52.5883 11.7403L52.5542 11.71C51.5802 10.818 50.3075 10.3232 48.9868 10.3232C47.6661 10.3232 46.3933 10.818 45.4194 11.71L45.3853 11.7403L15.0728 40.3477C14.5366 40.8469 14.1097 41.4517 13.8188 42.1241C13.528 42.7964 13.3795 43.5217 13.3829 44.2542V79.2841C13.3829 80.691 13.9418 82.0403 14.9366 83.0351C15.9314 84.0299 17.2807 84.5888 18.6876 84.5888H36.8751C38.2819 84.5888 39.6312 84.0299 40.626 83.0351C41.6209 82.0403 42.1797 80.691 42.1797 79.2841V61.0966C42.1797 60.8956 42.2596 60.7029 42.4017 60.5608C42.5438 60.4186 42.7366 60.3388 42.9376 60.3388H55.0626C55.2635 60.3388 55.4563 60.4186 55.5984 60.5608C55.7405 60.7029 55.8204 60.8956 55.8204 61.0966V79.2841C55.8204 80.691 56.3792 82.0403 57.3741 83.0351C58.3689 84.0299 59.7182 84.5888 61.125 84.5888H79.3125C80.7194 84.5888 82.0687 84.0299 83.0635 83.0351C84.0583 82.0403 84.6172 80.691 84.6172 79.2841V44.2542C84.6172 43.5197 84.4646 42.7932 84.1691 42.1208C83.8736 41.4483 83.4418 40.8446 82.9008 40.3477ZM80.0704 79.2841C80.0704 79.4851 79.9905 79.6778 79.8484 79.82C79.7063 79.9621 79.5135 80.0419 79.3125 80.0419H61.125C60.9241 80.0419 60.7313 79.9621 60.5892 79.82C60.4471 79.6778 60.3672 79.4851 60.3672 79.2841V61.0966C60.3672 59.6897 59.8084 58.3405 58.8135 57.3456C57.8187 56.3508 56.4694 55.7919 55.0626 55.7919H42.9376C41.5307 55.7919 40.1814 56.3508 39.1866 57.3456C38.1917 58.3405 37.6329 59.6897 37.6329 61.0966V79.2841C37.6329 79.4851 37.553 79.6778 37.4109 79.82C37.2688 79.9621 37.076 80.0419 36.8751 80.0419H18.6876C18.4866 80.0419 18.2938 79.9621 18.1517 79.82C18.0096 79.6778 17.9297 79.4851 17.9297 79.2841V44.2542C17.9295 44.1488 17.9513 44.0444 17.9937 43.9479C18.0361 43.8513 18.0982 43.7646 18.176 43.6935L18.2101 43.6631L48.4999 15.0633C48.6379 14.9428 48.8149 14.8765 48.9982 14.8765C49.1814 14.8765 49.3584 14.9428 49.4964 15.0633L79.79 43.6669L79.8203 43.6972C79.8988 43.7681 79.9616 43.8546 80.0047 43.9512C80.0477 44.0478 80.0701 44.1523 80.0704 44.258V79.2841Z" fill="white"/>
</g>
</svg>
