<svg width="16" height="17" viewBox="0 0 16 17" fill="none" xmlns="http://www.w3.org/2000/svg">
<g id="material-symbols:phone-enabled-outline">
<path id="Vector" d="M2.7 14.5C2.5 14.5 2.33333 14.4333 2.2 14.3C2.06667 14.1667 2 14 2 13.8V11.1C2 10.9556 2.05 10.8249 2.15 10.708C2.25 10.5911 2.37778 10.5107 2.53333 10.4667L4.83333 10C4.98889 9.97778 5.14733 9.99178 5.30867 10.042C5.47 10.0922 5.60044 10.1671 5.7 10.2667L7.26667 11.8333C7.68889 11.5889 8.08889 11.3193 8.46667 11.0247C8.84444 10.73 9.20556 10.4107 9.55 10.0667C9.91667 9.71111 10.2529 9.34156 10.5587 8.958C10.8644 8.57445 11.1282 8.17734 11.35 7.76667L9.73333 6.13334C9.64444 6.04445 9.58333 5.93889 9.55 5.81667C9.51667 5.69445 9.51111 5.54445 9.53333 5.36667L9.96667 3.03334C9.98889 2.88889 10.0611 2.76378 10.1833 2.658C10.3056 2.55223 10.4444 2.49956 10.6 2.5H13.3C13.5 2.5 13.6667 2.56667 13.8 2.7C13.9333 2.83334 14 3 14 3.2C14 4.58889 13.6971 5.96111 13.0913 7.31667C12.4856 8.67223 11.6273 9.90556 10.5167 11.0167C9.40556 12.1278 8.17222 12.9862 6.81667 13.592C5.46111 14.1978 4.08889 14.5004 2.7 14.5ZM11.9667 6.5C12.1556 6.06667 12.3 5.62778 12.4 5.18334C12.5 4.73889 12.5778 4.28889 12.6333 3.83334H11.1667L10.8667 5.4L11.9667 6.5ZM6 12.4333L4.9 11.3333L3.33333 11.6667V13.1333C3.78889 13.1 4.23889 13.0222 4.68333 12.9C5.12778 12.7778 5.56667 12.6222 6 12.4333Z" fill="white"/>
</g>
</svg>
