<svg width="25" height="25" viewBox="0 0 25 25" fill="none" xmlns="http://www.w3.org/2000/svg">
<g id="material-symbols:phone-enabled-outline">
<path id="Vector" d="M4.3791 21.4238C4.0791 21.4238 3.8291 21.3238 3.6291 21.1238C3.4291 20.9238 3.3291 20.6738 3.3291 20.3738V16.3238C3.3291 16.1072 3.4041 15.9112 3.5541 15.7358C3.7041 15.5605 3.89577 15.4398 4.1291 15.3738L7.5791 14.6738C7.81243 14.6405 8.0501 14.6615 8.2921 14.7368C8.5341 14.8122 8.72977 14.9245 8.8791 15.0738L11.2291 17.4238C11.8624 17.0572 12.4624 16.6528 13.0291 16.2108C13.5958 15.7688 14.1374 15.2898 14.6541 14.7738C15.2041 14.2405 15.7084 13.6862 16.1671 13.1108C16.6258 12.5355 17.0214 11.9398 17.3541 11.3238L14.9291 8.87383C14.7958 8.7405 14.7041 8.58217 14.6541 8.39883C14.6041 8.2155 14.5958 7.9905 14.6291 7.72383L15.2791 4.22383C15.3124 4.00717 15.4208 3.8195 15.6041 3.66083C15.7874 3.50217 15.9958 3.42317 16.2291 3.42383H20.2791C20.5791 3.42383 20.8291 3.52383 21.0291 3.72383C21.2291 3.92383 21.3291 4.17383 21.3291 4.47383C21.3291 6.55717 20.8748 8.6155 19.9661 10.6488C19.0574 12.6822 17.7701 14.5322 16.1041 16.1988C14.4374 17.8655 12.5874 19.1532 10.5541 20.0618C8.52077 20.9705 6.46244 21.4245 4.3791 21.4238ZM18.2791 9.42383C18.5624 8.77383 18.7791 8.1155 18.9291 7.44883C19.0791 6.78217 19.1958 6.10717 19.2791 5.42383H17.0791L16.6291 7.77383L18.2791 9.42383ZM9.3291 18.3238L7.6791 16.6738L5.3291 17.1738V19.3738C6.01243 19.3238 6.68743 19.2072 7.3541 19.0238C8.02077 18.8405 8.6791 18.6072 9.3291 18.3238Z" fill="#212121"/>
</g>
</svg>
