<svg width="16" height="17" viewBox="0 0 16 17" fill="none" xmlns="http://www.w3.org/2000/svg">
<g id="ic:sharp-search">
<path id="Vector" d="M10.3333 9.83334H9.80667L9.62 9.65334C10.2959 8.86935 10.6674 7.86846 10.6667 6.83334C10.6667 5.97628 10.4125 5.13848 9.93637 4.42586C9.46022 3.71325 8.78344 3.15784 7.99163 2.82986C7.19982 2.50188 6.32853 2.41606 5.48794 2.58327C4.64736 2.75047 3.87523 3.16318 3.26921 3.76921C2.66318 4.37523 2.25047 5.14736 2.08327 5.98794C1.91606 6.82853 2.00188 7.69982 2.32986 8.49163C2.65784 9.28344 3.21325 9.96022 3.92586 10.4364C4.63848 10.9125 5.47628 11.1667 6.33334 11.1667C7.40667 11.1667 8.39334 10.7733 9.15334 10.12L9.33334 10.3067V10.8333L12.6667 14.16L13.66 13.1667L10.3333 9.83334ZM6.33334 9.83334C4.67334 9.83334 3.33334 8.49334 3.33334 6.83334C3.33334 5.17334 4.67334 3.83334 6.33334 3.83334C7.99334 3.83334 9.33334 5.17334 9.33334 6.83334C9.33334 8.49334 7.99334 9.83334 6.33334 9.83334Z" fill="#B1B2B4"/>
</g>
</svg>
